<?xml version="1.0" encoding="UTF-8"?>
<!DOCTYPE svg PUBLIC "-//W3C//DTD SVG 1.1//EN" "http://www.w3.org/Graphics/SVG/1.1/DTD/svg11.dtd">
<!-- Creator: CorelDRAW 2019 (64-Bit) -->
<svg xmlns="http://www.w3.org/2000/svg" xml:space="preserve" width="197.555mm" height="84.2779mm" version="1.1" style="shape-rendering:geometricPrecision; text-rendering:geometricPrecision; image-rendering:optimizeQuality; fill-rule:evenodd; clip-rule:evenodd"
viewBox="0 0 197.3297 84.1817"
 xmlns:xlink="http://www.w3.org/1999/xlink"
 xmlns:xodm="http://www.corel.com/coreldraw/odm/2003">
 <defs>
  <style type="text/css">
   <![CDATA[
    .fil7 {fill:#058642}
    .fil0 {fill:#231F20}
    .fil5 {fill:#A32420}
    .fil1 {fill:#A6A8AB}
    .fil4 {fill:#BDBEBF}
    .fil6 {fill:#E41A2B}
    .fil3 {fill:#ED2E33}
    .fil2 {fill:white}
   ]]>
  </style>
 </defs>
 <g id="Layer_x0020_1">
  <metadata id="CorelCorpID_0Corel-Layer"/>
  <g id="_742686048">
   <path class="fil0" d="M197.1293 29.9437c-8.154,0 -14.7722,-6.6174 -14.7722,-14.7717 0,-0.0524 0,-0.1051 0,-0.1581l-167.4272 0c0,0 0,0.1057 0,0.1581 0,8.1543 -6.6181,14.7717 -14.7722,14.7717 -0.0524,0 -0.1052,0 -0.1576,0l0 39.2876c0,0 0.1052,0 0.1576,0 8.1541,0 14.7722,6.6175 14.7722,14.7718 0,0.0632 0,0.1261 0,0.1786l167.4388 0c0,-0.0627 0,-0.1154 0,-0.1786 0,-8.1543 6.6182,-14.7718 14.7709,-14.7718 0.0643,0 0.1272,0 0.1901,0l0 -39.2978c-0.0629,0 -0.1258,0 -0.2004,0.0102z"/>
   <path class="fil1" d="M174.7932 21.0743c0,0 -0.1797,0 -0.5056,0.0211 -0.3258,0.0109 -0.8096,0.0422 -1.4307,0.0634 -0.621,0.0212 -1.3676,0.0524 -2.2212,0.0838 -0.8621,0.0321 -1.8296,0.0634 -2.8816,0.0845 -1.0522,0.0212 -2.1993,0.0526 -3.4093,0.0736 -1.2099,0.0315 -2.4828,0.0628 -3.8096,0.0628 -2.6406,0.0211 -5.4594,0.0423 -8.2797,0.0633 -2.819,-0.0211 -5.6393,-0.0423 -8.2804,-0.0633 -1.3254,0 -2.5982,-0.0417 -3.8085,-0.0628 -1.2101,-0.032 -2.3568,-0.0524 -3.409,-0.0736 -1.052,-0.0211 -2.0303,-0.0524 -2.8825,-0.0845 -0.8632,-0.0314 -1.6099,-0.0524 -2.22,-0.0838 -0.621,-0.0213 -1.1052,-0.0525 -1.4311,-0.0634 -0.3266,-0.0103 -0.5051,-0.0211 -0.5051,-0.0211l0 -0.0526c0,0 11.2685,-0.0102 22.5469,-0.021 11.2696,0.0108 22.5478,0.021 22.5478,0.021l0 0.0526 -0.0204 0z"/>
   <path class="fil1" d="M127.6563 19.4331l50.9452 -0.0211 0.0526 0 0 0.0525c0,0.4738 0.0102,0.947 0.0321,1.4208 0.0103,0.2312 0.041,0.4732 0.0628,0.7044 0.0321,0.2317 0.0628,0.463 0.0949,0.7049l0.1359 0.6947 0.1681 0.6839 0.2003 0.6735c0.0846,0.2209 0.1577,0.4419 0.2424,0.6628 0.1783,0.4418 0.3684,0.8733 0.5787,1.2837 0.2207,0.4207 0.4516,0.8311 0.7146,1.2204 0.1272,0.1997 0.2645,0.3893 0.4003,0.5782l0.2105 0.2844 0.2207 0.2734c0.1475,0.1895 0.3054,0.3579 0.4633,0.5366 0.1578,0.1792 0.3257,0.3475 0.4835,0.516 0.3376,0.3362 0.6839,0.6519 1.0522,0.9463 0.3683,0.2952 0.7482,0.5788 1.1369,0.842 0.2003,0.1261 0.399,0.2523 0.5992,0.3791 0.2001,0.1153 0.4106,0.2311 0.621,0.347l0.6313 0.3156 0.6532 0.2837 0.6619 0.2529c0.2208,0.0737 0.4517,0.1473 0.6738,0.2209 0.2308,0.0627 0.4515,0.1262 0.6839,0.1894 0.2308,0.0526 0.4631,0.1051 0.6941,0.1577 0.2322,0.0423 0.4632,0.0844 0.6941,0.1262l0.7057 0.0947 0.7044 0.0634 0.7043 0.0314 0.0322 0 0 21.8424 -0.0628 0 -0.095 -5.4502 -0.0731 -5.4502 -0.0628 -5.4497 -0.0424 -5.4502 0.304 0.3049 -0.7248 0 -0.7263 -0.0628 -0.716 -0.0845c-0.2426,-0.0315 -0.4735,-0.0736 -0.7146,-0.1154 -0.2426,-0.0422 -0.4735,-0.0948 -0.7161,-0.1478 -0.2322,-0.0524 -0.4734,-0.1261 -0.7044,-0.1786 -0.2322,-0.0628 -0.4633,-0.1472 -0.6955,-0.2107l-0.6838 -0.2523c-0.2208,-0.0948 -0.4517,-0.1895 -0.6737,-0.2843l-0.6518 -0.3259c-0.2105,-0.1159 -0.4311,-0.2311 -0.6415,-0.3579 -0.2106,-0.1263 -0.4209,-0.2523 -0.6211,-0.3895 -0.4106,-0.2734 -0.7994,-0.5468 -1.1779,-0.8624 -0.3786,-0.3055 -0.7466,-0.6313 -1.0944,-0.9681 -0.1681,-0.1684 -0.3479,-0.3471 -0.5043,-0.5258 -0.1694,-0.1792 -0.3273,-0.3579 -0.4851,-0.5474l-0.2307 -0.2843 -0.2222 -0.2946c-0.1461,-0.189 -0.2834,-0.3995 -0.4193,-0.5993 -0.2748,-0.4 -0.5275,-0.8312 -0.7482,-1.2628 -0.2309,-0.4315 -0.431,-0.8836 -0.6093,-1.3362 -0.0951,-0.2312 -0.1695,-0.463 -0.2529,-0.6941l-0.2205 -0.705 -0.168 -0.7159c-0.0426,-0.2419 -0.0951,-0.4839 -0.1374,-0.7261 -0.0322,-0.242 -0.0629,-0.4834 -0.0949,-0.7256 -0.0206,-0.242 -0.0425,-0.4948 -0.0526,-0.737l-0.0205 -0.7254 0 -0.7051 0.4412 0.4419 -12.731 -0.032c-2.1247,0 -4.2393,0 -6.3653,-0.0315l-6.3655 -0.0524 -6.3655 -0.0524 -3.1876 -0.0213 -3.1881 -0.0422 -6.3653 -0.0839 -3.1881 -0.0423 -3.1882 -0.0526 0 -0.0524 -0.0108 -0.0212z"/>
   <path class="fil1" d="M22.5054 21.0217c0,0 10.8582,-0.0102 21.7164,-0.021 10.8582,0.0108 21.7159,0.021 21.7159,0.021l0 0.0526c0,0 -0.1685,0 -0.484,0.0211 -0.3151,0.0109 -0.7889,0.0422 -1.378,0.0634 -0.589,0.0212 -1.3151,0.0524 -2.1461,0.0838 -0.8313,0.0321 -1.7571,0.0634 -2.7778,0.0845 -1.0205,0.0212 -2.1258,0.0526 -3.2827,0.0736 -1.1679,0.0315 -2.3993,0.0628 -3.6722,0.0628 -2.5457,0.0211 -5.2607,0.0423 -7.9749,0.0633 -2.7148,-0.0211 -5.429,-0.0423 -7.9756,-0.0633 -1.2728,0 -2.5041,-0.0417 -3.6721,-0.0628 -1.1673,-0.032 -2.2725,-0.0524 -3.2822,-0.0736 -1.0207,-0.0211 -1.9466,-0.0524 -2.7778,-0.0845 -0.831,-0.0314 -1.5469,-0.0524 -2.1462,-0.0838 -0.5896,-0.0213 -1.0628,-0.0525 -1.3785,-0.0634 -0.3155,-0.0103 -0.4839,-0.0211 -0.4839,-0.0211l0 -0.0526z"/>
   <path class="fil1" d="M68.3997 19.4857l-3.1037 0.0632 -3.1036 0.0417 -6.2076 0.0846 -3.1043 0.0423 -3.1035 0.0315 -12.4154 0.1049c-2.0728,0.0212 -4.1454,0.0212 -6.2079,0.0315l-12.4257 0.032 0.4527 -0.4419 0 0.7051 -0.0212 0.7254c-0.0107,0.2421 -0.0423,0.4949 -0.0523,0.737 -0.0212,0.2421 -0.0634,0.4835 -0.0948,0.7256 -0.0423,0.2421 -0.0845,0.4841 -0.1369,0.7261 -0.0525,0.242 -0.1161,0.4738 -0.1788,0.7159l-0.2207 0.705c-0.0846,0.2311 -0.1581,0.4629 -0.253,0.6941 -0.1787,0.4526 -0.3894,0.9047 -0.6102,1.3362 -0.2311,0.4316 -0.4733,0.8522 -0.7471,1.2628 -0.1365,0.1998 -0.2735,0.4103 -0.4208,0.5993l-0.2208 0.2946 -0.2311 0.2843c-0.1473,0.1895 -0.3157,0.3682 -0.484,0.5474 -0.1581,0.1787 -0.3368,0.3574 -0.5052,0.5258 -0.347,0.347 -0.7153,0.6626 -1.0941,0.9681 -0.3786,0.3049 -0.7787,0.589 -1.1784,0.8624 -0.1997,0.1371 -0.4104,0.253 -0.6211,0.3895 -0.2099,0.1268 -0.4205,0.2316 -0.6416,0.3579l-0.6525 0.3259 -0.6735 0.2843 -0.6838 0.2523c-0.2312,0.0742 -0.4629,0.1478 -0.6941,0.2107 -0.2318,0.0633 -0.474,0.1262 -0.705,0.1786 -0.2421,0.053 -0.4739,0.1057 -0.7153,0.1478 -0.242,0.0418 -0.4737,0.0839 -0.7158,0.1154l-0.7152 0.0845 -0.7262 0.0524 -0.7261 0 0.2945 -0.2843 -0.0417 5.4503 -0.0735 5.4502 -0.0742 5.4503 -0.0839 5.4497 -0.0526 0 0 -21.8426 0.0315 0 0.7051 -0.0314 0.7049 -0.0627 0.705 -0.0948c0.2317,-0.0321 0.4628,-0.0845 0.6947,-0.1262 0.2311,-0.0422 0.4628,-0.1056 0.694,-0.1581 0.2318,-0.0634 0.4527,-0.1263 0.6838,-0.1895 0.2209,-0.0736 0.4526,-0.1473 0.6736,-0.2209l0.6626 -0.2522 0.6525 -0.2844 0.6313 -0.3156c0.2102,-0.116 0.4106,-0.2312 0.6205,-0.3471 0.1999,-0.1261 0.4002,-0.242 0.6001,-0.3791 0.3892,-0.2625 0.7786,-0.5364 1.1358,-0.8412 0.3689,-0.2947 0.7159,-0.6103 1.0527,-0.9471 0.1683,-0.1683 0.3361,-0.3368 0.484,-0.5154 0.1576,-0.1685 0.3151,-0.347 0.4629,-0.5366l0.2209 -0.2734 0.2101 -0.2844c0.1473,-0.1894 0.2734,-0.3789 0.4,-0.5787 0.2627,-0.3893 0.4945,-0.7997 0.7154,-1.2204 0.2209,-0.4207 0.4104,-0.8522 0.5789,-1.2837 0.0837,-0.2209 0.1573,-0.442 0.2418,-0.6627l0.1999 -0.6737 0.1685 -0.6837 0.1362 -0.6941c0.032,-0.2317 0.0736,-0.463 0.0948,-0.7051 0.0211,-0.2317 0.0423,-0.463 0.0633,-0.7049 0.0212,-0.4733 0.0314,-0.947 0.0314,-1.4203l0 -0.053 0.0525 0 49.6824 0.0212 0 0.0524 -0.0212 -0.0102z"/>
   <path class="fil1" d="M183.263 66.6009c-0.2323,0.1678 -0.453,0.3361 -0.6737,0.5154 -0.2206,0.1787 -0.431,0.3683 -0.6416,0.5577 -0.2104,0.189 -0.4105,0.3895 -0.6108,0.5892 -0.2001,0.1998 -0.3887,0.4103 -0.5786,0.6205 -0.7467,0.8419 -1.4101,1.7781 -1.9567,2.7672 -0.548,0.9893 -0.9894,2.0413 -1.3049,3.1247 -0.1578,0.5474 -0.2851,1.0942 -0.3786,1.652 -0.0526,0.2734 -0.0847,0.5577 -0.1155,0.842 -0.0321,0.2836 -0.0539,0.5679 -0.0744,0.8412l0 0.0526 -0.0526 0 -35.6986 -0.0213 0 -0.0524 2.2301 -0.0628 2.2309 -0.0524 4.4606 -0.1057 8.9227 -0.1261 2.2301 -0.0315c0.7481,-0.0108 1.4846,0 2.2299,-0.0108l4.4629 -0.0213 8.9214 -0.0416 -0.4735 0.4418c0.0205,-0.2946 0.0525,-0.5787 0.0846,-0.8733 0.041,-0.2947 0.0833,-0.5788 0.1359,-0.8625 0.1052,-0.5788 0.2426,-1.1468 0.4209,-1.7045 0.1695,-0.5578 0.3683,-1.1051 0.5991,-1.6417 0.1169,-0.2633 0.2425,-0.5367 0.3698,-0.7889 0.1358,-0.2529 0.2834,-0.5155 0.4309,-0.7575 0.5992,-0.9996 1.3153,-1.915 2.1147,-2.7565 0.2001,-0.2004 0.4106,-0.4001 0.6313,-0.5896 0.2104,-0.189 0.4311,-0.3785 0.6633,-0.5578 0.2206,-0.1786 0.4516,-0.3471 0.6839,-0.5154 0.2412,-0.1575 0.4735,-0.3156 0.7146,-0.463l0.022 0.032z"/>
   <path class="fil1" d="M134.2533 79.6995c0.9258,-0.0313 1.8519,-0.0735 2.7672,-0.0941l2.7675 -0.0742c0.9259,-0.0206 1.8517,-0.0524 2.7667,-0.0628l2.7673 -0.0423 5.5451 -0.0947c0.9249,-0.0212 1.8515,-0.0102 2.7662,-0.0212l2.7677 0 5.5442 -0.0418 5.5354 0 5.5443 0.0316 2.7676 0c0.925,0.0212 1.8515,0.0212 2.7664,0.0314l-0.399 0.3893 0 -0.7153 0.041 -0.726c0.0116,-0.2421 0.0425,-0.4944 0.0629,-0.7364 0.0321,-0.2421 0.0744,-0.4841 0.1065,-0.7262 0.041,-0.2419 0.0951,-0.484 0.1359,-0.7153l0.1798 -0.7158 0.2091 -0.7049c0.0846,-0.2311 0.1695,-0.463 0.2527,-0.6839 0.095,-0.2209 0.19,-0.4522 0.2849,-0.6729 0.1053,-0.2209 0.2105,-0.4425 0.326,-0.6525 0.2308,-0.4315 0.4734,-0.8522 0.7467,-1.2627 0.1372,-0.1999 0.2746,-0.4105 0.4207,-0.5999 0.1477,-0.1999 0.2952,-0.3894 0.453,-0.5782l0.231 -0.2844 0.2424 -0.2734c0.1578,-0.1792 0.326,-0.3579 0.5043,-0.5263 0.1694,-0.1787 0.3476,-0.3368 0.526,-0.5051 0.1797,-0.1685 0.3682,-0.3158 0.5583,-0.4734 0.3784,-0.3054 0.7672,-0.589 1.1676,-0.8624 0.2002,-0.1371 0.4105,-0.253 0.6211,-0.3894 0.2104,-0.1267 0.4207,-0.2317 0.6313,-0.3578 0.2104,-0.116 0.431,-0.2108 0.6518,-0.3158l0.6634 -0.2842 0.6838 -0.2522 0.6941 -0.221 0.7059 -0.1895 0.7043 -0.1473 0.7161 -0.1159 0.7146 -0.0839 0.716 -0.0524 0.7146 -0.0212 -0.1359 0.1365 0.0526 -5.5554 0.0628 -5.5554 0.0525 0 0 11.1425 -0.0321 0 -0.7146 0.0315 -0.7058 0.0634 -0.7043 0.0941 -0.7044 0.1269 -0.6941 0.1575 -0.6854 0.1896 -0.6722 0.2207 -0.6634 0.2632 -0.6518 0.2946c-0.2119,0.1051 -0.4207,0.21 -0.6313,0.3259 -0.2104,0.1159 -0.4208,0.2317 -0.621,0.3578 -0.2002,0.1263 -0.4107,0.2524 -0.6005,0.3786 -0.3889,0.2632 -0.7775,0.5474 -1.1356,0.8522 -0.1796,0.1581 -0.3683,0.3054 -0.5363,0.4629 -0.1796,0.1581 -0.3477,0.3266 -0.5158,0.495 -0.1681,0.1683 -0.3375,0.3368 -0.4836,0.5153l-0.2323 0.2632 -0.2206 0.2734c-0.1579,0.1787 -0.2953,0.3786 -0.4312,0.5681 -0.1474,0.1896 -0.2732,0.3894 -0.4003,0.589 -0.263,0.4001 -0.4938,0.8107 -0.7146,1.2313 -0.1169,0.2107 -0.2002,0.4316 -0.3054,0.6418 -0.0951,0.2207 -0.1798,0.4423 -0.2734,0.6632 -0.0847,0.2208 -0.1578,0.452 -0.2424,0.6729l-0.2004 0.6838 -0.168 0.6948c-0.0424,0.2311 -0.0949,0.463 -0.1257,0.7049 -0.0321,0.2312 -0.0744,0.4732 -0.0949,0.7049 -0.0221,0.2312 -0.0424,0.4733 -0.0526,0.705 -0.0219,0.4733 -0.0323,0.947 -0.0323,1.4305l0 0.0424 -22.2103 0 -22.1691 -0.0104 0 -0.0524 0.0212 0.0205z"/>
   <path class="fil1" d="M53.3334 78.1423l-32.8794 0.0213 -0.0526 0 0 -0.0526 -0.0633 -0.726 -0.0949 -0.7255c-0.0423,-0.2421 -0.0839,-0.4842 -0.1262,-0.7262 -0.0524,-0.242 -0.1159,-0.4739 -0.1682,-0.7158 -0.0634,-0.2312 -0.137,-0.4734 -0.1998,-0.7051 -0.0736,-0.2311 -0.1582,-0.463 -0.2318,-0.6941 -0.0841,-0.2317 -0.1788,-0.4526 -0.2625,-0.6837 -0.095,-0.221 -0.2004,-0.442 -0.2952,-0.6737 -0.1052,-0.2207 -0.221,-0.4315 -0.3364,-0.6525 -0.1159,-0.2101 -0.2418,-0.4205 -0.3578,-0.6415 -0.1262,-0.2108 -0.2632,-0.4105 -0.3894,-0.6205l-0.4206 -0.6 -0.4526 -0.5788 -0.4734 -0.5577 -0.5051 -0.5366 -0.5262 -0.5154 0.0318 -0.0422 0.5783 0.4629 0.5475 0.5052 0.5256 0.5262 0.495 0.5578c0.1574,0.1998 0.3048,0.3893 0.4629,0.589 0.1474,0.1998 0.2947,0.4103 0.4309,0.6103 0.137,0.21 0.2741,0.4207 0.4002,0.6312 0.1263,0.221 0.2522,0.431 0.3681,0.6526 0.116,0.2209 0.2318,0.4417 0.337,0.6729 0.0947,0.2317 0.1998,0.4629 0.2841,0.6947 0.0839,0.242 0.1788,0.4732 0.2523,0.7154 0.0737,0.2419 0.1473,0.4839 0.2209,0.7259 0.0634,0.2422 0.1263,0.4841 0.1787,0.7366 0.0524,0.2522 0.1056,0.4942 0.1472,0.7471l0.1159 0.7465c0.0211,0.253 0.0524,0.5052 0.0737,0.7581l-0.4733 -0.4425 8.2171 0.0423 4.1139 0.0212c0.6839,0 1.3676,0 2.0515,0.0102l2.0515 0.0321 8.2178 0.1262 4.1138 0.1051 2.0516 0.0524 2.0515 0.0634 0 0.0524 -0.0101 0.0314z"/>
   <path class="fil1" d="M8.4698 35.4151c0,0 0.2947,-0.084 0.8101,-0.2421 0.1262,-0.0423 0.2735,-0.0838 0.4316,-0.1261 0.1471,-0.0524 0.3155,-0.1159 0.4943,-0.1896 0.1786,-0.0628 0.3578,-0.1363 0.5576,-0.21 0.1998,-0.0736 0.3893,-0.1793 0.6,-0.274 0.2101,-0.0949 0.4208,-0.1999 0.6519,-0.3049 0.2208,-0.1263 0.4419,-0.2529 0.6735,-0.3791 0.1159,-0.0628 0.2311,-0.1261 0.3471,-0.1998 0.116,-0.0634 0.2318,-0.1473 0.3476,-0.2209 0.2311,-0.1575 0.4631,-0.3156 0.7045,-0.4732 0.2316,-0.1793 0.4527,-0.3579 0.6844,-0.5366 0.1152,-0.0948 0.2413,-0.1793 0.347,-0.2842 0.1051,-0.1051 0.221,-0.2 0.3369,-0.3055 0.1153,-0.1051 0.2207,-0.1998 0.336,-0.3049l0.1685 -0.1581 0.1582 -0.1685c0.2099,-0.2207 0.4205,-0.452 0.6204,-0.6729 0.3893,-0.4738 0.7895,-0.9366 1.1153,-1.4522 0.358,-0.4839 0.6313,-1.0205 0.9259,-1.515 0.1262,-0.2522 0.242,-0.5153 0.3682,-0.7683 0.0634,-0.1261 0.1158,-0.2522 0.1792,-0.3681 0.0524,-0.1262 0.0941,-0.2524 0.1363,-0.3785 0.0949,-0.242 0.1794,-0.484 0.2633,-0.7158 0.0736,-0.2311 0.137,-0.4734 0.1998,-0.6941 0.0634,-0.2209 0.126,-0.4315 0.1684,-0.6423 0.0423,-0.21 0.0735,-0.3995 0.1158,-0.589 0.0314,-0.1787 0.0737,-0.3573 0.0948,-0.5154 0.0212,-0.1577 0.0315,-0.3049 0.0525,-0.4419 0.0526,-0.5366 0.0949,-0.842 0.0949,-0.842l0.0524 0c0,0 0,0.0845 0,0.2209 0,0.1479 0,0.3579 0,0.6313 0,0.137 0,0.2844 -0.0103,0.4528 -0.0212,0.1683 -0.032,0.3368 -0.053,0.5263 -0.0206,0.189 -0.0418,0.3894 -0.0628,0.6101 -0.0212,0.2102 -0.0846,0.4311 -0.1371,0.6628 -0.0524,0.2312 -0.0947,0.4733 -0.1575,0.7152 -0.0736,0.242 -0.158,0.4949 -0.2419,0.7471 -0.0423,0.1263 -0.0845,0.2632 -0.1262,0.3894 -0.0531,0.1263 -0.1056,0.2632 -0.1581,0.3893 -0.1051,0.2632 -0.221,0.5366 -0.347,0.7998 -0.2844,0.5154 -0.5476,1.0732 -0.9157,1.5886 -0.3259,0.5264 -0.7466,1.0097 -1.136,1.515 -0.2208,0.2317 -0.4316,0.463 -0.6525,0.6839l-0.158 0.1683 -0.1787 0.1582c-0.116,0.105 -0.2318,0.2101 -0.3472,0.3156 -0.1159,0.105 -0.2317,0.2101 -0.3475,0.3156 -0.1153,0.1051 -0.2414,0.189 -0.3683,0.2837 -0.2421,0.1793 -0.4839,0.3579 -0.7255,0.5366 -0.253,0.1581 -0.4948,0.3156 -0.737,0.463 -0.1262,0.0736 -0.2419,0.1473 -0.3572,0.2106 -0.1269,0.0628 -0.2421,0.1263 -0.369,0.1896 -0.2412,0.1263 -0.473,0.2421 -0.7043,0.3574 -0.2318,0.0947 -0.4628,0.1895 -0.6844,0.274 -0.221,0.0839 -0.4207,0.1786 -0.6307,0.242 -0.2109,0.0628 -0.4003,0.1153 -0.5896,0.1677 -0.1788,0.0532 -0.3576,0.1057 -0.5157,0.1473 -0.1573,0.032 -0.3048,0.0634 -0.4417,0.0948 -0.2632,0.053 -0.4731,0.0845 -0.6204,0.1159 -0.1474,0.0211 -0.2216,0.0423 -0.2216,0.0423l0 -0.0525 -0.0417 0.0103z"/>
   <path class="fil1" d="M63.8233 79.7528l-11.2794 0.0204 -11.279 0 -22.5578 -0.0102 -0.0423 0 0 -0.0423 -0.0206 -0.7049 -0.0634 -0.705 -0.0947 -0.6941 -0.126 -0.6947 -0.1582 -0.6839 -0.189 -0.673 -0.2209 -0.6633 -0.2528 -0.6519 -0.2844 -0.6421 -0.3149 -0.6313 -0.3477 -0.6103 -0.3682 -0.5994 -0.3996 -0.5788 -0.4212 -0.5577 -0.4522 -0.5365 -0.4737 -0.5154 -0.4942 -0.4944c-0.1787,-0.1581 -0.3473,-0.3156 -0.5259,-0.4738 -0.1792,-0.1472 -0.3578,-0.3049 -0.5474,-0.4527 -0.1896,-0.1365 -0.3682,-0.2837 -0.568,-0.4207 -0.1896,-0.1363 -0.3894,-0.2734 -0.5787,-0.3995 -0.1999,-0.1261 -0.3996,-0.2529 -0.5999,-0.3682 -0.2102,-0.116 -0.41,-0.2318 -0.6206,-0.3367 -0.2106,-0.1051 -0.4207,-0.2108 -0.6315,-0.3055 -0.2207,-0.0948 -0.4313,-0.189 -0.6525,-0.2734 -0.2206,-0.084 -0.4416,-0.1685 -0.6626,-0.2421 -0.2209,-0.0736 -0.4417,-0.1471 -0.6735,-0.2101 -0.2312,-0.0529 -0.452,-0.1267 -0.6838,-0.1683 -0.2312,-0.0424 -0.4629,-0.0948 -0.6941,-0.137 -0.2318,-0.0315 -0.4631,-0.0737 -0.6947,-0.1051l-0.705 -0.0633 -0.7049 -0.0314 0 -0.0526 0.7049 0.0104 0.705 0.0525c0.2316,0.0211 0.4737,0.0525 0.705,0.0844 0.2316,0.0314 0.4628,0.084 0.705,0.1153 0.2318,0.0423 0.4629,0.1057 0.6947,0.1581 0.2312,0.0526 0.4519,0.1263 0.6837,0.2 0.2312,0.0735 0.4521,0.158 0.673,0.2317 0.2209,0.0839 0.4419,0.1786 0.6632,0.2624 0.221,0.0949 0.4311,0.2004 0.652,0.2953 0.2107,0.1051 0.4214,0.2209 0.6313,0.3258 0.2107,0.1159 0.4105,0.2421 0.6212,0.358 0.1997,0.1262 0.3994,0.2625 0.5994,0.3894 0.2004,0.1363 0.3892,0.2837 0.5787,0.4207 0.1895,0.1471 0.3681,0.2944 0.5576,0.4417 0.1788,0.1575 0.358,0.3156 0.5366,0.4732 0.1786,0.1685 0.3471,0.3266 0.5155,0.495l0.4949 0.5257 0.4629 0.5475 0.4419 0.5679 0.4103 0.5892 0.3889 0.6101 0.3578 0.621 0.3266 0.6417 0.3048 0.6525 0.2735 0.6735 0.242 0.6839 0.2105 0.6941 0.1685 0.7049 0.1364 0.705 0.1057 0.7159 0.0736 0.7152 0.0315 0.7261 -0.3786 -0.379 5.6392 -0.0313 5.6398 0 11.2789 -0.0315 11.2791 -0.032 4.2297 0.0634 0.7044 0 0.7049 0.0422 2.8199 0.1261 2.1149 0.1576 0.705 0.0736 0 0.0524 -0.0103 -0.0204z"/>
   <path class="fil1" d="M178.9375 28.5133c0.1475,0.2734 0.2953,0.5366 0.4633,0.7997 0.1577,0.2626 0.3258,0.5257 0.4954,0.7786 0.3462,0.5046 0.7248,0.9996 1.1252,1.4515 0.2001,0.2317 0.4207,0.4527 0.6415,0.6628 0.2206,0.2106 0.4531,0.4211 0.6839,0.6211 0.2425,0.1997 0.4837,0.3783 0.7365,0.5576 0.2529,0.1788 0.5056,0.3471 0.7788,0.4944 0.2632,0.158 0.5363,0.3054 0.8097,0.4315 0.1373,0.0628 0.2747,0.1364 0.4223,0.1895 0.1359,0.0628 0.2835,0.1262 0.4194,0.1786 0.285,0.1159 0.5786,0.2209 0.8636,0.3049 0.2951,0.0948 0.5889,0.1793 0.884,0.2529 0.2938,0.0737 0.5992,0.1363 0.9047,0.1998 0.304,0.0634 0.6093,0.1051 0.9045,0.1473 0.3056,0.0423 0.6108,0.0736 0.9164,0.1051 0.3039,0.0319 0.6093,0.0422 0.9147,0.0632l0.0526 0 0 0.0526 -0.0205 18.5071 -0.0539 0 -0.0628 -1.1576 -0.0526 -1.1571 -0.0936 -2.3148 -0.0745 -2.3146c-0.0204,-0.7683 -0.0425,-1.5469 -0.0525,-2.3147 -0.0425,-1.5469 -0.0527,-3.083 -0.0746,-4.6294 -0.0103,-0.7683 0,-1.5469 -0.0103,-2.3147l0 -2.3148 0.4428 0.4734c-0.6313,-0.0315 -1.2523,-0.0949 -1.8835,-0.1788 -0.3157,-0.0423 -0.621,-0.0948 -0.9367,-0.158 -0.3155,-0.0629 -0.6211,-0.1262 -0.9264,-0.2102 -0.3041,-0.0845 -0.6093,-0.1684 -0.9149,-0.274 -0.3054,-0.105 -0.5991,-0.2101 -0.8942,-0.3361 -0.1477,-0.0634 -0.2938,-0.1269 -0.4415,-0.1896 -0.1474,-0.0634 -0.2848,-0.137 -0.4311,-0.2107 -0.2848,-0.1472 -0.5582,-0.3049 -0.8315,-0.4732 -0.2732,-0.1684 -0.5363,-0.3477 -0.789,-0.5366 -0.2529,-0.1896 -0.5056,-0.3894 -0.7365,-0.5999 -0.2324,-0.2108 -0.4633,-0.4315 -0.6738,-0.6627 -0.2206,-0.2317 -0.4207,-0.4629 -0.621,-0.7051 -0.3887,-0.4942 -0.7467,-1.0103 -1.0623,-1.5469 -0.1579,-0.2624 -0.3157,-0.5364 -0.4633,-0.81 -0.1359,-0.2734 -0.2734,-0.5577 -0.4003,-0.8413l0.0423 -0.0211z"/>
   <path class="fil1" d="M120.4075 31.312l-0.4105 0 0 1.1147 -0.8837 0 0 -3.0088 1.8095 0c0.7576,0 1.1468,0.3895 1.1468,0.9048l0 0.116c0,0.4103 -0.2733,0.6839 -0.7678,0.7888l0.9152 1.1992 -0.9996 0 -0.8099 -1.1147zm0.3258 -0.4948l0 0c0.3266,0 0.4628,-0.1263 0.4628,-0.3363l0 -0.1056c0,-0.1896 -0.1261,-0.3259 -0.452,-0.3259l-0.7471 0 0 0.7678 0.7364 0z"/>
   <path class="fil1" d="M120.4811 28.1977c1.5359,0 2.7775,1.2415 2.7775,2.7776 0,1.5359 -1.2416,2.7776 -2.7775,2.7776 -1.5361,0 -2.7776,-1.2417 -2.7776,-2.7776 0,-1.5361 1.2415,-2.7776 2.7776,-2.7776zm0 -0.6103l0 0c-1.8626,0 -3.3878,1.515 -3.3878,3.3879 0,1.8728 1.515,3.3877 3.3878,3.3877 1.873,0 3.3878,-1.515 3.3878,-3.3877 0,-1.873 -1.5149,-3.3879 -3.3878,-3.3879z"/>
   <path class="fil1" d="M184.0624 58.2783l-0.6416 0 0 1.7672 -1.4 0 0 -4.7658 2.8729 0c1.1983,0 1.8193,0.6205 1.8193,1.4305l0 0.1896c0,0.6626 -0.4311,1.084 -1.2202,1.2523l1.4526 1.8934 -1.5783 0 -1.3048 -1.7672zm0.526 -0.7895l0 0c0.5056,0 0.7263,-0.1998 0.7263,-0.5257l0 -0.1685c0,-0.3054 -0.212,-0.5262 -0.7058,-0.5262l-1.188 0 0 1.2204 1.1676 0z"/>
   <path class="fil1" d="M184.1778 53.3543c2.4302,0 4.3985,1.9671 4.3985,4.3977 0,2.4305 -1.9683,4.3982 -4.3985,4.3982 -2.4301,0 -4.3971,-1.9677 -4.3971,-4.3982 0,-2.4306 1.967,-4.3977 4.3971,-4.3977zm0 -0.9682l0 0c-2.9563,0 -5.366,2.4095 -5.366,5.3659 0,2.9568 2.4096,5.3663 5.366,5.3663 2.9562,0 5.366,-2.4094 5.366,-5.3663 0,-2.9563 -2.4097,-5.3659 -5.366,-5.3659z"/>
   <path class="fil1" d="M50.9238 29.4603c0,-0.0948 0.084,-0.1895 0.1896,-0.1895l4.0927 0c0.1052,0 0.189,0.0838 0.189,0.1895l0 1.0731c0,0.0948 -0.0838,0.1889 -0.189,0.1889l-2.736 0 0 1.2313 2.2521 0c0.0947,0 0.1895,0.0839 0.1895,0.1896l0 1.0732c0,0.105 -0.0847,0.1895 -0.1895,0.1895l-2.2521 0 0 1.3357 2.736 0c0.1052,0 0.189,0.0845 0.189,0.1896l0 1.0732c0,0.0947 -0.0838,0.1895 -0.189,0.1895l-4.0927 0c-0.1056,0 -0.1896,-0.084 -0.1896,-0.1895l0 -6.5439z"/>
   <path class="fil1" d="M57.8679 35.5413c-0.0839,-0.0839 -0.1051,-0.1685 -0.0423,-0.2946l0.4529 -0.7997c0.0838,-0.1263 0.2418,-0.1263 0.3365,-0.0628 0.2735,0.1896 0.7786,0.5469 1.3993,0.5469 0.4001,0 0.6836,-0.242 0.6836,-0.5891 0,-0.4104 -0.3681,-0.6838 -1.0204,-0.9996 -0.9574,-0.4629 -1.9147,-0.9995 -1.9147,-2.1885 0,-0.9784 0.7575,-1.9676 2.2827,-1.9676 1.0316,0 1.8204,0.5262 2.115,0.737 0.1159,0.0735 0.0947,0.2522 0.0634,0.3156l-0.5052 0.7574c-0.0736,0.105 -0.2421,0.1889 -0.4315,0.0736 -0.2312,-0.1581 -0.8101,-0.5366 -1.3358,-0.5366 -0.4104,0 -0.6,0.2523 -0.6,0.547 0,0.3264 0.3894,0.5786 1.0733,0.9155 0.8735,0.4207 1.999,0.9049 1.999,2.2513 0,1.0207 -0.8837,2.0516 -2.3359,2.0516 -1.2837,0 -1.9989,-0.5365 -2.2199,-0.7574z"/>
   <path class="fil1" d="M66.1483 30.7331l-1.4099 0c-0.1051,0 -0.1896,-0.0844 -0.1896,-0.1894l0 -1.0732c0,-0.0948 0.0845,-0.1895 0.1896,-0.1895l4.3873 0c0.1057,0 0.1896,0.0845 0.1896,0.1895l0 1.0732c0,0.0947 -0.0839,0.1894 -0.1896,0.1894l-1.4099 0 0 5.282c0,0.0947 -0.084,0.1895 -0.189,0.1895l-1.1889 0c-0.0949,0 -0.1896,-0.0844 -0.1896,-0.1895l0 -5.282z"/>
   <path class="fil1" d="M131.0236 31.4273l-0.9785 0c-0.0948,0 -0.1793,-0.0839 -0.1793,-0.1998l0 -0.6416c0,-0.0844 0.0315,-0.1159 0.0635,-0.1472l1.3253 -1.0418c0.1057,-0.0839 0.2209,-0.1159 0.358,-0.1159l0.7365 0c0.0948,0 0.1895,0.0845 0.1895,0.1895l0 6.5337c0,0.1055 -0.0845,0.2003 -0.1895,0.2003l-1.1258 0c-0.1158,0 -0.1997,-0.0844 -0.1997,-0.2003l0 -4.577z"/>
   <path class="fil1" d="M136.6737 32.6478l0 -0.0417c-0.5475,-0.3055 -1.0527,-0.7575 -1.0527,-1.5572 0,-1.1468 1.0206,-1.873 2.2519,-1.873 1.2308,0 2.3147,0.7262 2.3147,1.873 0,0.7678 -0.5468,1.2837 -1.0519,1.5572l0 0.0524c0.5788,0.2524 1.2416,0.8312 1.2416,1.7148 0,1.2101 -0.9785,1.9363 -2.5152,1.9363 -1.5361,0 -2.4509,-0.7365 -2.4509,-1.9363 0,-0.9049 0.7364,-1.5151 1.2414,-1.7148l0.0212 -0.0108zm1.2415 2.3992l0 0c0.5046,0 0.8203,-0.3259 0.8203,-0.7684 0,-0.3785 -0.2836,-0.7465 -0.8413,-0.9258 -0.5264,0.1793 -0.8208,0.5578 -0.8208,0.9258 0,0.4528 0.3155,0.7684 0.8418,0.7684zm0.7153 -3.9456l0 0c0,-0.347 -0.2733,-0.6626 -0.7364,-0.6626 -0.4206,0 -0.7159,0.3156 -0.7159,0.6626 0,0.3683 0.242,0.6526 0.7159,0.8313 0.484,-0.1685 0.7364,-0.4841 0.7364,-0.8313z"/>
   <path class="fil1" d="M143.8277 35.1417c0.4738,-0.1581 1.7994,-0.5999 2.0522,-1.6204 -0.2631,0.1055 -0.6948,0.2106 -0.9681,0.2106 -0.9572,0 -2.0303,-0.7152 -2.0303,-2.2199 0,-1.2839 1.0622,-2.3359 2.335,-2.3359 1.5677,0 2.4518,1.189 2.4518,2.7674 0,2.9985 -2.357,4.1345 -3.4192,4.4289 -0.1581,0.0531 -0.2632,-0.0205 -0.3157,-0.1575l-0.2946 -0.7786c-0.0422,-0.1261 0,-0.242 0.1997,-0.2946l-0.0108 0zm2.3897 -3.5773l0 0c0,-0.5264 -0.443,-0.9784 -0.9797,-0.9784 -0.5366,0 -0.9785,0.452 -0.9785,0.9784 0,0.5264 0.4317,0.9893 0.9785,0.9893 0.5476,0 0.9797,-0.4425 0.9797,-0.9893z"/>
   <path class="fil1" d="M151.1302 31.4273l-0.9792 0c-0.0949,0 -0.1782,-0.0839 -0.1782,-0.1998l0 -0.6416c0,-0.0844 0.0308,-0.1159 0.0628,-0.1472l1.3254 -1.0418c0.1052,-0.0839 0.2221,-0.1159 0.3581,-0.1159l0.7365 0c0.0949,0 0.1885,0.0845 0.1885,0.1895l0 6.5337c0,0.1055 -0.0833,0.2003 -0.1885,0.2003l-1.1266 0c-0.1141,0 -0.1988,-0.0844 -0.1988,-0.2003l0 -4.577z"/>
   <path class="fil2" d="M115.6441 0l0.0917 38.8556 -1.2517 0c0,-0.6207 -0.5476,-1.1258 -1.2212,-1.1258 -0.6729,0 -1.2094,0.5051 -1.2094,1.1366l-1.2525 0c0,-0.6211 -0.547,-1.1257 -1.2205,-1.1257 -0.673,0 -1.2204,0.5046 -1.2095,1.1359l-1.2524 0c0,-0.6205 -0.5469,-1.1256 -1.2204,-1.1256 -0.6737,0 -1.2102,0.5051 -1.2102,1.1365l-1.2518 0c0,-0.6211 -0.5468,-1.1263 -1.2206,-1.1263 -0.6735,0 -1.2203,0.5052 -1.2203,1.1366l-1.2414 0c0,-0.6205 -0.5475,-1.1258 -1.2205,-1.1258 -0.6735,0 -1.2204,0.5053 -1.2204,1.1366l-1.2524 0c0,-0.621 -0.5468,-1.1262 -1.2203,-1.1262 -0.6737,0 -1.2206,0.5052 -1.2206,1.1365l-1.2517 0c0,-0.6211 -0.5474,-1.1256 -1.2212,-1.1256 -0.6727,0 -1.2094,0.5045 -1.2094,1.1358l-1.2524 0c0,-0.6205 -0.5468,-1.1256 -1.2204,-1.1256 -0.6729,0 -1.2205,0.5051 -1.2205,1.1366l-1.2518 0c0,-0.6315 -0.5474,-1.1256 -1.2203,-1.1256 -0.6737,0 -1.2212,0.5046 -1.2212,1.1359l-1.2518 0 -0.0987 -38.9503 34.4436 0z"/>
   <path class="fil2" d="M115.6441 0l0.0917 38.8556 -1.2517 0c0,-0.6207 -0.5476,-1.1258 -1.2212,-1.1258 -0.6729,0 -1.2094,0.5051 -1.2094,1.1366l-1.2525 0c0,-0.6211 -0.547,-1.1257 -1.2205,-1.1257 -0.673,0 -1.2204,0.5046 -1.2095,1.1359l-1.2524 0c0,-0.6205 -0.5469,-1.1256 -1.2204,-1.1256 -0.6737,0 -1.2102,0.5051 -1.2102,1.1365l-1.2518 0c0,-0.6211 -0.5468,-1.1263 -1.2206,-1.1263 -0.6735,0 -1.2203,0.5052 -1.2203,1.1366l-1.2414 0c0,-0.6205 -0.5475,-1.1258 -1.2205,-1.1258 -0.6735,0 -1.2204,0.5053 -1.2204,1.1366l-1.2524 0c0,-0.621 -0.5468,-1.1262 -1.2203,-1.1262 -0.6737,0 -1.2206,0.5052 -1.2206,1.1365l-1.2517 0c0,-0.6211 -0.5474,-1.1256 -1.2212,-1.1256 -0.6727,0 -1.2094,0.5045 -1.2094,1.1358l-1.2524 0c0,-0.6205 -0.5468,-1.1256 -1.2204,-1.1256 -0.6729,0 -1.2205,0.5051 -1.2205,1.1366l-1.2518 0c0,-0.6315 -0.5474,-1.1256 -1.2203,-1.1256 -0.6737,0 -1.2212,0.5046 -1.2212,1.1359l-1.2518 0 -0.0987 -38.9503 34.4436 0z"/>
   <path class="fil2" d="M81.0993 39.1609l-0.0986 -39.1609 0.4415 0 0.099 38.7294 0.8312 0c0.105,-0.6416 0.705,-1.1359 1.4202,-1.1359 0.7159,0 1.3049,0.4943 1.4208,1.1256l0.8522 0c0.1158,-0.6423 0.705,-1.1365 1.4203,-1.1365 0.3994,0 0.7786,0.1472 1.0417,0.4206 0.1998,0.2005 0.3259,0.4425 0.3682,0.7051l0.8522 0c0.105,-0.6417 0.7048,-1.136 1.41,-1.136 0.3994,0 0.7786,0.1575 1.0519,0.4206 0.1999,0.1999 0.326,0.4419 0.3681,0.705l0.8522 0c0.1051,-0.6416 0.7052,-1.1365 1.4203,-1.1365 0.7161,0 1.3051,0.4949 1.421,1.1257l0.8521 0c0.1159,-0.6416 0.7051,-1.1359 1.4204,-1.1359 0.7151,0 1.3047,0.4839 1.4199,1.1256l0.8522 0c0.0532,-0.2842 0.1896,-0.5366 0.4105,-0.7471 0.274,-0.2524 0.6313,-0.3893 1.0103,-0.3893 0.3995,0 0.7677,0.1471 1.0418,0.4211 0.1998,0.1999 0.3258,0.4419 0.3784,0.7051l0.8522 0c0.116,-0.6423 0.705,-1.1366 1.4099,-1.1366 0.7153,0 1.3051,0.4943 1.4203,1.1256l0.8522 0c0.0423,-0.263 0.1684,-0.5051 0.3684,-0.7049 0.2739,-0.2735 0.6523,-0.431 1.0525,-0.431 0.7151,0 1.3042,0.4944 1.4201,1.1257l0.8522 0c0.116,-0.6423 0.7051,-1.1365 1.41,-1.1365 0.7152,0 1.3045,0.4839 1.4203,1.1257l0.8311 0 -0.0913 -38.6347 0.4098 0 0.092 39.0764 -1.6834 0 0 -0.21c0,-0.5052 -0.4526,-0.9157 -0.9997,-0.9157 -0.5473,0 -0.9996,0.4104 -0.9996,0.9157l0 0.2207 -1.6832 0 0 -0.2106c0,-0.5046 -0.4528,-0.9151 -0.9996,-0.9151 -0.2842,0 -0.5577,0.1153 -0.7472,0.3049 -0.1682,0.1684 -0.2522,0.3893 -0.2522,0.6102l0 0.2209 -1.6834 0 0 -0.2209c0,-0.5046 -0.4527,-0.9151 -0.9996,-0.9151 -0.5475,0 -1.0001,0.4104 -1.0001,0.9151l0 0.2209 -1.6834 0 0 -0.2101c0,-0.2318 -0.0948,-0.4527 -0.2626,-0.6211 -0.1894,-0.1896 -0.4629,-0.2945 -0.737,-0.2945 -0.2733,0 -0.5257,0.0947 -0.7153,0.2734 -0.1896,0.1684 -0.2842,0.4001 -0.2842,0.6422l0 0.2209 -1.6834 0 0 -0.2209c0,-0.5052 -0.452,-0.9156 -0.9993,-0.9156 -0.5471,0 -0.9996,0.4103 -0.9996,0.9156l0 0.2209 -1.6836 0 0 -0.2209c0,-0.5052 -0.4525,-0.9156 -0.9995,-0.9156 -0.5475,0 -0.9995,0.4103 -0.9995,0.9156l0 0.2209 -1.6834 0 0 -0.2209c0,-0.2318 -0.0947,-0.4418 -0.2631,-0.6102 -0.1896,-0.1895 -0.4631,-0.2946 -0.7472,-0.2946 -0.5469,0 -0.9995,0.4099 -0.9995,0.9151l0 0.2208 -1.6834 0 0 -0.2208c0,-0.2311 -0.0949,-0.4419 -0.2631,-0.6102 -0.189,-0.1895 -0.4522,-0.2947 -0.7364,-0.2947 -0.5579,0 -0.9997,0.4105 -0.9997,0.9157l0 0.2209 -1.6834 0 0 -0.2209c0,-0.5051 -0.4526,-0.9157 -0.9995,-0.9157 -0.5475,0 -0.9995,0.4105 -0.9995,0.9157l0 0.2209 -1.6835 0 -0.0211 0.0314z"/>
   <path class="fil3" d="M115.6441 0l0.0917 38.8556 -1.2517 0c0,-0.6207 -0.5476,-1.1258 -1.2212,-1.1258 -0.6729,0 -1.2094,0.5051 -1.2094,1.1366l-1.2525 0c0,-0.6211 -0.547,-1.1257 -1.2205,-1.1257 -0.673,0 -1.2204,0.5046 -1.2095,1.1359l-1.2524 0c0,-0.6205 -0.5469,-1.1256 -1.2204,-1.1256 -0.6737,0 -1.2102,0.5051 -1.2102,1.1365l-1.2518 0c0,-0.6211 -0.5468,-1.1263 -1.2206,-1.1263 -0.6735,0 -1.2203,0.5052 -1.2203,1.1366l-1.2414 0c0,-0.6205 -0.5475,-1.1258 -1.2205,-1.1258 -0.6735,0 -1.2204,0.5053 -1.2204,1.1366l-1.2524 0c0,-0.621 -0.5468,-1.1262 -1.2203,-1.1262 -0.6737,0 -1.2206,0.5052 -1.2206,1.1365l-1.2517 0c0,-0.6211 -0.5474,-1.1256 -1.2212,-1.1256 -0.6727,0 -1.2094,0.5045 -1.2094,1.1358l-1.2524 0c0,-0.6205 -0.5468,-1.1256 -1.2204,-1.1256 -0.6729,0 -1.2205,0.5051 -1.2205,1.1366l-1.2518 0c0,-0.6315 -0.5474,-1.1256 -1.2203,-1.1256 -0.6737,0 -1.2212,0.5046 -1.2212,1.1359l-1.2518 0 -0.0987 -38.9503 34.4436 0z"/>
   <path class="fil3" d="M80.9413 39.3184l-0.0985 -39.3184 0.7465 0 0.0992 38.5717 0.5474 0c0.1787,-0.6525 0.7992,-1.1364 1.5361,-1.1364 0.7465,0 1.3676,0.4839 1.5463,1.1256l0.5999 0c0.1787,-0.6525 0.7997,-1.136 1.5463,-1.136 0.4418,0 0.8521,0.1685 1.1576,0.463 0.1896,0.1889 0.326,0.4098 0.3894,0.6628l0.5994 0c0.1791,-0.6526 0.7995,-1.1366 1.5358,-1.1366 0.4426,0 0.8632,0.1684 1.1578,0.4738 0.1896,0.1889 0.3155,0.4098 0.3893,0.6628l0.6001 0c0.1784,-0.6526 0.7991,-1.1366 1.536,-1.1366 0.7466,0 1.3677,0.484 1.5464,1.1256l0.5998 0c0.1786,-0.6519 0.7998,-1.1359 1.5462,-1.1359 0.7365,0 1.3677,0.4732 1.5469,1.1256l0.5995 0c0.0734,-0.2631 0.2206,-0.5051 0.4314,-0.7049 0.2945,-0.2734 0.6947,-0.4315 1.1152,-0.4315 0.4318,0 0.8523,0.1581 1.1572,0.463 0.1896,0.1895 0.3265,0.4212 0.3893,0.6632l0.6001 0c0.1786,-0.6525 0.7998,-1.1366 1.536,-1.1366 0.7363,0 1.3675,0.4841 1.5469,1.1258l0.5992 0c0.0634,-0.2421 0.1896,-0.4734 0.3793,-0.6628 0.2946,-0.3053 0.7261,-0.4738 1.1678,-0.4738 0.7363,0 1.3676,0.4841 1.5463,1.1262l0.6 0c0.1786,-0.6525 0.7996,-1.1365 1.5359,-1.1365 0.7364,0 1.3678,0.484 1.5464,1.1257l0.5474 0 -0.0919 -38.4873 0.741 0 0.0982 39.2345 -1.9996 0 0 -0.3681c0,-0.4207 -0.3784,-0.7575 -0.8414,-0.7575 -0.4629,0 -0.8418,0.3368 -0.8418,0.7575l0 0.3681 -1.9991 0 0 -0.3681c0,-0.4207 -0.3784,-0.7575 -0.8413,-0.7575 -0.2419,0 -0.4738,0.0948 -0.6313,0.2523 -0.1371,0.1369 -0.2108,0.3156 -0.2108,0.5052l0 0.3785 -1.9989 0 0 -0.3785c0,-0.4207 -0.3784,-0.7575 -0.8414,-0.7575 -0.4629,0 -0.842,0.347 -0.842,0.7575l0 0.3785 -1.999 0 0 -0.3683c0,-0.1895 -0.0735,-0.3681 -0.2207,-0.5046 -0.1581,-0.1581 -0.4003,-0.2529 -0.6316,-0.2419 -0.2315,0 -0.4525,0.0838 -0.61,0.2311 -0.1582,0.1369 -0.2317,0.3259 -0.2317,0.5263l0 0.3785 -1.9992 0 0 -0.3785c0,-0.4213 -0.3783,-0.7574 -0.8412,-0.7574 -0.463,0 -0.8417,0.347 -0.8417,0.7574l0 0.3785 -1.9992 0 0 -0.3785c0,-0.4213 -0.379,-0.7574 -0.842,-0.7574 -0.4629,0 -0.8413,0.347 -0.8413,0.7677l0 0.379 -1.999 0 0 -0.379c0,-0.1895 -0.0735,-0.3683 -0.2107,-0.5051 -0.1574,-0.1577 -0.3894,-0.2524 -0.6313,-0.2524 -0.463,0 -0.8413,0.3471 -0.8413,0.7575l0 0.379 -1.9992 0 0 -0.379c0,-0.1895 -0.0734,-0.3683 -0.2206,-0.5051 -0.1582,-0.1577 -0.3895,-0.2421 -0.6211,-0.2524 -0.4631,0 -0.8414,0.3368 -0.8414,0.7575l0 0.379 -1.9996 0 0 -0.3682c0,-0.4212 -0.3786,-0.758 -0.8414,-0.758 -0.4631,0 -0.8419,0.3476 -0.8419,0.758l0 0.3786 -1.999 0 -0.0211 0.0313z"/>
   <path class="fil4" d="M115.6441 0l0.0917 38.8556 -1.2517 0c0,-0.6207 -0.5476,-1.1258 -1.2212,-1.1258 -0.6729,0 -1.2094,0.5051 -1.2094,1.1366l-1.2525 0c0,-0.6211 -0.547,-1.1257 -1.2205,-1.1257 -0.673,0 -1.2204,0.5046 -1.2095,1.1359l-1.2524 0c0,-0.6205 -0.5469,-1.1256 -1.2204,-1.1256 -0.6737,0 -1.2102,0.5051 -1.2102,1.1365l-1.2518 0c0,-0.6211 -0.5468,-1.1263 -1.2206,-1.1263 -0.6735,0 -1.2203,0.5052 -1.2203,1.1366l-1.2414 0c0,-0.6205 -0.5475,-1.1258 -1.2205,-1.1258 -0.6735,0 -1.2204,0.5053 -1.2204,1.1366l-1.2524 0c0,-0.621 -0.5468,-1.1262 -1.2203,-1.1262 -0.6737,0 -1.2206,0.5052 -1.2206,1.1365l-1.2517 0c0,-0.6211 -0.5474,-1.1256 -1.2212,-1.1256 -0.6727,0 -1.2094,0.5045 -1.2094,1.1358l-1.2524 0c0,-0.6205 -0.5468,-1.1256 -1.2204,-1.1256 -0.6729,0 -1.2205,0.5051 -1.2205,1.1366l-1.2518 0c0,-0.6315 -0.5474,-1.1256 -1.2203,-1.1256 -0.6737,0 -1.2212,0.5046 -1.2212,1.1359l-1.2518 0 -0.0987 -38.9503 34.4436 0z"/>
   <path class="fil5" d="M80.9413 39.3184l-0.0985 -39.3184 0.7465 0 0.0992 38.5717 0.5474 0c0.1787,-0.6525 0.7992,-1.1364 1.5361,-1.1364 0.7465,0 1.3676,0.4839 1.5463,1.1256l0.5999 0c0.1787,-0.6525 0.7997,-1.136 1.5463,-1.136 0.4418,0 0.8521,0.1685 1.1576,0.463 0.1896,0.1889 0.326,0.4098 0.3894,0.6628l0.5994 0c0.1791,-0.6526 0.7995,-1.1366 1.5358,-1.1366 0.4426,0 0.8632,0.1684 1.1578,0.4738 0.1896,0.1889 0.3155,0.4098 0.3893,0.6628l0.6001 0c0.1784,-0.6526 0.7991,-1.1366 1.536,-1.1366 0.7466,0 1.3677,0.484 1.5464,1.1256l0.5998 0c0.1786,-0.6519 0.7998,-1.1359 1.5462,-1.1359 0.7365,0 1.3677,0.4732 1.5469,1.1256l0.5995 0c0.0734,-0.2631 0.2206,-0.5051 0.4314,-0.7049 0.2945,-0.2734 0.6947,-0.4315 1.1152,-0.4315 0.4318,0 0.8523,0.1581 1.1572,0.463 0.1896,0.1895 0.3265,0.4212 0.3893,0.6632l0.6001 0c0.1786,-0.6525 0.7998,-1.1366 1.536,-1.1366 0.7363,0 1.3675,0.4841 1.5469,1.1258l0.5992 0c0.0634,-0.2421 0.1896,-0.4734 0.3793,-0.6628 0.2946,-0.3053 0.7261,-0.4738 1.1678,-0.4738 0.7363,0 1.3676,0.4841 1.5463,1.1262l0.6 0c0.1786,-0.6525 0.7996,-1.1365 1.5359,-1.1365 0.7364,0 1.3678,0.484 1.5464,1.1257l0.5474 0 -0.0919 -38.4873 0.741 0 0.0982 39.2345 -1.9996 0 0 -0.3681c0,-0.4207 -0.3784,-0.7575 -0.8414,-0.7575 -0.4629,0 -0.8418,0.3368 -0.8418,0.7575l0 0.3681 -1.9991 0 0 -0.3681c0,-0.4207 -0.3784,-0.7575 -0.8413,-0.7575 -0.2419,0 -0.4738,0.0948 -0.6313,0.2523 -0.1371,0.1369 -0.2108,0.3156 -0.2108,0.5052l0 0.3785 -1.9989 0 0 -0.3785c0,-0.4207 -0.3784,-0.7575 -0.8414,-0.7575 -0.4629,0 -0.842,0.347 -0.842,0.7575l0 0.3785 -1.999 0 0 -0.3683c0,-0.1895 -0.0735,-0.3681 -0.2207,-0.5046 -0.1581,-0.1581 -0.4003,-0.2529 -0.6316,-0.2419 -0.2315,0 -0.4525,0.0838 -0.61,0.2311 -0.1582,0.1369 -0.2317,0.3259 -0.2317,0.5263l0 0.3785 -1.9992 0 0 -0.3785c0,-0.4213 -0.3783,-0.7574 -0.8412,-0.7574 -0.463,0 -0.8417,0.347 -0.8417,0.7574l0 0.3785 -1.9992 0 0 -0.3785c0,-0.4213 -0.379,-0.7574 -0.842,-0.7574 -0.4629,0 -0.8413,0.347 -0.8413,0.7677l0 0.379 -1.999 0 0 -0.379c0,-0.1895 -0.0735,-0.3683 -0.2107,-0.5051 -0.1574,-0.1577 -0.3894,-0.2524 -0.6313,-0.2524 -0.463,0 -0.8413,0.3471 -0.8413,0.7575l0 0.379 -1.9992 0 0 -0.379c0,-0.1895 -0.0734,-0.3683 -0.2206,-0.5051 -0.1582,-0.1577 -0.3895,-0.2421 -0.6211,-0.2524 -0.4631,0 -0.8414,0.3368 -0.8414,0.7575l0 0.379 -1.9996 0 0 -0.3682c0,-0.4212 -0.3786,-0.758 -0.8414,-0.758 -0.4631,0 -0.8419,0.3476 -0.8419,0.758l0 0.3786 -1.999 0 -0.0211 0.0313z"/>
   <path class="fil3" d="M115.6441 0l0.0917 38.8556 -1.2517 0c0,-0.6207 -0.5476,-1.1258 -1.2212,-1.1258 -0.6729,0 -1.2094,0.5051 -1.2094,1.1366l-1.2525 0c0,-0.6211 -0.547,-1.1257 -1.2205,-1.1257 -0.673,0 -1.2204,0.5046 -1.2095,1.1359l-1.2524 0c0,-0.6205 -0.5469,-1.1256 -1.2204,-1.1256 -0.6737,0 -1.2102,0.5051 -1.2102,1.1365l-1.2518 0c0,-0.6211 -0.5468,-1.1263 -1.2206,-1.1263 -0.6735,0 -1.2203,0.5052 -1.2203,1.1366l-1.2414 0c0,-0.6205 -0.5475,-1.1258 -1.2205,-1.1258 -0.6735,0 -1.2204,0.5053 -1.2204,1.1366l-1.2524 0c0,-0.621 -0.5468,-1.1262 -1.2203,-1.1262 -0.6737,0 -1.2206,0.5052 -1.2206,1.1365l-1.2517 0c0,-0.6211 -0.5474,-1.1256 -1.2212,-1.1256 -0.6727,0 -1.2094,0.5045 -1.2094,1.1358l-1.2524 0c0,-0.6205 -0.5468,-1.1256 -1.2204,-1.1256 -0.6729,0 -1.2205,0.5051 -1.2205,1.1366l-1.2518 0c0,-0.6315 -0.5474,-1.1256 -1.2203,-1.1256 -0.6737,0 -1.2212,0.5046 -1.2212,1.1359l-1.2518 0 -0.0987 -38.9503 34.4436 0z"/>
   <polygon class="fil6" points="86.6772,0 86.7597,33.7924 86.7597,35.2027 85.9999,35.2045 84.9645,35.2045 84.8782,0 "/>
   <polygon class="fil6" points="90.2863,0 90.3725,35.1919 89.448,35.1942 88.5732,35.1942 88.4869,0 "/>
   <polygon class="fil6" points="93.9056,0 93.9881,33.8049 93.9881,35.1817 92.1923,35.1862 92.1064,0 "/>
   <polygon class="fil6" points="97.525,0 97.6077,33.7493 97.6077,35.1708 95.8118,35.1754 95.726,0 "/>
   <polygon class="fil6" points="101.1444,0 101.2266,33.5299 101.2266,35.1708 100.3504,35.173 99.4205,35.173 99.3347,0 "/>
   <polygon class="fil6" points="104.7532,0 104.8352,33.4601 104.8352,35.1502 103.0401,35.1542 102.9541,0 "/>
   <polygon class="fil6" points="108.3725,0 108.455,33.8007 108.455,35.1604 107.5511,35.1628 106.6597,35.1628 106.5734,0 "/>
   <polygon class="fil6" points="111.9816,0 112.0676,35.1395 111.2007,35.1417 110.2684,35.1417 110.1824,0 "/>
   <polygon class="fil6" points="82.1828,36.5409 82.0933,0 82.6407,0 82.7302,35.9939 114.3156,35.9204 114.2263,0 114.7625,0 114.8521,36.4672 "/>
   <polygon class="fil6" points="83.1405,35.5835 83.1405,35.426 83.0516,0 83.3637,0 83.4454,35.2781 113.5894,35.2045 113.5008,0 113.8124,0 113.8942,35.5098 "/>
   <path class="fil2" d="M126.2048 19.1073c0.021,5.7128 -12.3945,10.3633 -27.7034,10.4055 -15.3192,0.0315 -27.7448,-4.5666 -27.755,-10.2691 -0.0108,-5.7129 12.3941,-10.3634 27.7027,-10.4057 15.319,-0.0313 27.7447,4.5662 27.7558,10.2693z"/>
   <g>
    <path class="fil3" d="M91.4312 16.9815c-1.9567,0 -3.3353,1.1468 -3.7558,3.0619 -0.3895,1.8307 0.6414,3.1567 2.4092,3.1567 2.0516,0 3.3246,-1.1051 3.7561,-3.0619 0.4206,-1.9152 -0.5788,-3.1459 -2.4095,-3.1459l0 -0.0108zm0.4526 3.1144l0 0c-0.4315,2.0098 -0.9994,2.5989 -1.6415,2.5989 -0.6729,0 -0.9997,-0.81 -0.6102,-2.5989 0.3892,-1.8095 1.0731,-2.599 1.6942,-2.599 0.6313,0 0.9573,0.7895 0.5681,2.599l-0.0105 0z"/>
   </g>
   <path class="fil3" d="M100.0272 16.8027c0.0211,-0.0844 0,-0.1997 -0.0838,-0.1368 -0.7897,0.5154 -1.7364,0.2945 -2.5253,1.1787 -0.2946,0.326 -0.589,0.8414 -0.705,1.1256 0.2108,-0.9571 0.4104,-1.8516 0.4104,-1.8516 -1.2941,0.0211 -1.9888,0.6101 -2.2097,1.7045 -0.242,1.1889 -0.7785,3.6087 -0.7785,3.6087l-0.3786 0.5577 2.2828 0 0.5262 -2.5989c0.4206,-1.6725 0.9574,-1.7045 1.9887,-1.9881 0.8414,-0.2317 1.2941,-0.9054 1.4727,-1.5891l0 -0.0105z"/>
   <path class="fil3" d="M115.9042 16.95c-0.1684,0.7262 -1.2102,5.3767 -1.2102,5.3767l-0.3367 0.6102 2.252 0 1.7254 -7.786c-1.294,-0.137 -2.1995,0.8209 -2.4305,1.7991z"/>
   <path class="fil3" d="M107.15 16.9398c-0.9151,0 -1.6098,0.2734 -2.2512,0.7364 -0.1685,-0.4738 -0.6417,-0.7262 -1.3991,-0.7262 -1.4311,0 -4.0724,1.5784 -4.2088,2.0829 -0.0844,0.3157 -0.7364,3.3463 -0.7364,3.3463l-0.3892 0.5891 2.3037 0 0.9471 -4.3139c0.0946,-0.4206 0.5474,-0.8208 0.9468,-0.8208 0.4943,0 0.6839,0.3893 0.558,0.9367l-0.8 3.6191 -0.3893 0.5685 2.3046 0 0.9572 -4.3137c0.0947,-0.4213 0.568,-0.8208 0.968,-0.8208 0.4944,0 0.6627,0.3893 0.5366,0.936l-0.7998 3.6197 -0.3367 0.568 2.2514 -0.0211c0,0 0.1268,-0.4944 0.2106,-0.9258l0.7051 -3.1984c0.2521,-1.1679 -0.2735,-1.8729 -1.3888,-1.8729l0.0102 0.0109z"/>
   <g>
    <path class="fil3" d="M113.8317 19.5594c0.6102,-0.3368 0.9046,-0.7998 0.9148,-1.3255 0.0212,-0.8209 -0.6101,-1.3682 -1.9778,-1.3574 -2.0411,0 -3.5562,1.3364 -3.7663,3.3879 -0.1581,1.4732 0.4208,2.8512 2.4826,2.841 0.9578,0 1.7889,-0.2843 2.3889,-0.6947l0.2312 -0.7152c-0.4942,0.3258 -0.9996,0.5366 -1.6835,0.5366 -1.1043,0 -1.5673,-0.7896 -1.5148,-1.8416 0.9469,-0.2522 2.3882,-0.5366 2.935,-0.8414l-0.0101 0.0104zm-2.7886 -0.0526l0 0c0.2529,-0.9258 0.737,-1.9886 1.5994,-1.9886 0.4732,0 0.6417,0.3681 0.6102,0.6626 -0.0423,0.3579 -0.2632,0.7581 -0.8945,1.0526 -0.3258,0.1473 -0.8938,0.3573 -1.3779,0.589 0,-0.0422 0.0102,-0.0734 0.0212,-0.1158l0.0417 -0.1999z"/>
   </g>
   <path class="fil3" d="M80.2895 19.549l-0.6424 2.8513 -0.3367 0.6103 2.2943 0 0.7888 -3.5563c1.5675,0.0417 2.3671,-0.5788 2.7565,-1.0732l-0.9048 4.0084 -0.3367 0.6102 2.2935 0 1.8313 -8.0801 0.3893 -0.7158 -2.3046 0 -0.8207 3.5248c-0.0211,0 -0.0315,0.0104 -0.0423,0.0212 -0.0628,0.0315 -0.6941,0.3471 -2.5774,0.4522l0.7575 -3.2824 0.3894 -0.705 -2.3045 0 -0.9573 4.114 -0.2733 1.2203z"/>
   <path class="fil3" d="M81.1621 18.1602c-1.8408,0.3683 -2.1462,1.6727 -2.1462,1.6727 -0.0526,0.1368 0.032,0.2419 0.1369,0.1472 0.0737,-0.0525 0.5578,-0.4311 1.7359,-0.6102l0.2734 -1.2097z"/>
   <path class="fil7" d="M85.1186 26.3036c3.8194,0 7.165,-0.8522 9.0277,-2.104 -1.8102,0.9783 -4.4296,1.3568 -7.6389,1.3676l-0.0634 0c-3.64,0 -6.6495,-1.0942 -8.7747,-2.5145l-0.6313 -0.5264c-1.0731,-1.0417 -1.631,-2.1782 -1.631,-3.3667 0,-2.515 2.5043,-4.8298 7.0601,-6.5023 4.3561,-1.5994 10.1322,-2.4831 16.266,-2.5042 6.1444,-0.0108 11.9207,0.8522 16.2766,2.4198 4.5665,1.6519 7.0913,3.9563 7.1022,6.4708 0,2.5254 -2.5041,4.8926 -7.1337,6.3442 -3.2194,1.0103 -8.1228,2.1361 -16.4871,2.515l-2.0304 0.0314c-3.9249,0.0213 -7.6284,0 -11.0579,-0.6525l-0.0109 0c0,0 4.1773,1.5996 13.2464,1.5784 14.5092,-0.0314 26.2511,-4.4295 26.2299,-9.8165 0,-5.3868 -11.7842,-9.7114 -26.2823,-9.68 -14.4984,0.0321 -26.2512,4.4296 -26.241,9.8063 0,1.4099 0.821,2.725 2.2519,3.9455 0.5893,0.5052 1.284,0.9048 1.5784,1.0629 2.2725,1.2729 5.3345,2.1252 8.8906,2.1252l0.0525 0z"/>
   <path class="fil2" d="M103.8152 15.0561c0.0942,0.0525 0.2101,0.0948 0.3363,0.0948 0.1472,0 0.2944,-0.0526 0.4423,-0.1473 0.2415,-0.1575 0.4208,-0.2631 0.5571,-0.347 0.6315,-0.3266 1.063,-0.4213 1.3365,-0.4213 0.158,0 0.2631,0.0212 0.3155,0.032 0.032,0 0.0423,0.0211 0.0525,0.0211l-0.0206 0 0.0315 0.0212 0.0314 0 0.0212 0.0205c0.0736,0.032 0.0947,0.0634 0.1051,0.0736l0 0.0321 0.0108 0 -0.0108 0 -0.0628 0.326 -0.0525 0.2945 0.2946 0.0634 0.3156 0.0628c0.1153,0.021 0.2421,0.0319 0.3574,0.0319 0.2944,-0.0109 0.5685,-0.0947 0.7893,-0.2318 0.2209,-0.1363 0.3894,-0.3156 0.4944,-0.5256 0.0423,-0.0845 0.0737,-0.1581 0.0839,-0.2318 0.2739,-0.0838 0.484,-0.2311 0.6423,-0.3893 0.1895,-0.1999 0.2944,-0.4207 0.3366,-0.6102 0.0103,-0.0737 0.0206,-0.1473 0.0206,-0.2108 0,0 0,-0.0735 0,-0.1049 0,-0.2108 -0.0628,-0.4207 -0.1677,-0.6 0,0 0,0 -0.0111,0 0.1053,-0.1786 0.1473,-0.3573 0.1473,-0.4943 0,-0.0211 0,-0.0525 0,-0.0736 0,-0.084 -0.0102,-0.1472 -0.0314,-0.1999 -0.0523,-0.242 -0.1997,-0.4526 -0.3893,-0.5998 -0.0948,-0.0737 -0.1998,-0.1262 -0.3157,-0.1684 0,-0.0418 0.0214,-0.084 0.0214,-0.1263 0,0 0,-0.0524 0,-0.0736 0,-0.3367 -0.2108,-0.6415 -0.5265,-0.81 0,0 -0.0211,0 -0.0211,-0.0109 0,0 0,-0.0102 0,-0.0205 -0.0212,-0.1056 -0.0526,-0.2317 -0.1263,-0.3688 -0.0736,-0.1363 -0.1894,-0.2734 -0.3578,-0.3893l-0.0206 0 -0.021 -0.0207 -0.0213 0c-0.1684,-0.0947 -0.3894,-0.158 -0.6524,-0.158 -0.1051,0 -0.2108,0.0211 -0.3158,0.0525 -0.0735,-0.0628 -0.1575,-0.1153 -0.2521,-0.1685 -0.1685,-0.0839 -0.3683,-0.1261 -0.6001,-0.1153 -0.0423,0 -0.0839,0 -0.1261,0 -0.1472,0.0104 -0.3259,0.0628 -0.5052,0.1576 -0.1262,0.0736 -0.2524,0.1684 -0.3572,0.2946 -0.0634,0 -0.1268,-0.0103 -0.1896,-0.0103 -0.2842,0 -0.6102,0.1159 -0.8631,0.3894l-0.0104 0 -0.0211 0.0314 -0.0212 0.0211 0 0.0212 0 -0.0212c-0.0625,0.0736 -0.1159,0.1575 -0.1473,0.2734 -0.0946,-0.0211 -0.1784,-0.0211 -0.252,-0.0211 -0.0949,0 -0.1897,0.0211 -0.2531,0.032 -0.1153,0.0314 -0.2311,0.0736 -0.3572,0.1472 -0.0632,0.0418 -0.1159,0.084 -0.1792,0.1364 -0.0628,-0.0102 -0.1154,-0.0212 -0.1788,-0.0314 -0.0634,0 -0.1261,0 -0.1895,0 -0.3156,0 -0.6205,0.137 -0.8522,0.347 -0.0947,0.0845 -0.1787,0.1896 -0.2523,0.3368 -0.0525,0.0947 -0.0948,0.2107 -0.116,0.3367 -0.1684,0.0736 -0.3156,0.1685 -0.4417,0.2946 -0.1787,0.1684 -0.3055,0.3791 -0.3792,0.6103l0 0.0947c0,0 0,0.0423 0,0.0634l0 0.1153c0,0.3156 0.1269,0.5999 0.3369,0.8106 0.2106,0.2101 0.5051,0.3471 0.8312,0.3894 0,0 0.1267,0.0314 0.1894,0.0736 0.0634,0.0417 0.1159,0.0941 0.1472,0.1473 0.0213,0.0417 0.0321,0.1049 0.0424,0.1889 0,0.0109 0,0.0319 0,0.053 0,0.1473 -0.0633,0.3471 -0.1786,0.5891l0 -0.0211 0.0205 0 -0.0205 0.0423 0 -0.011 0 0.0212 -0.0212 0.0315 0 0.032 0 -0.0212c0,0 -0.0525,0.0948 -0.1057,0.1787 -0.1889,0.2631 -0.5046,0.6416 -0.6519,0.7997l-0.1368 0.1575 0.0423 -0.0524c-0.1371,0.137 -0.2107,0.3265 -0.1998,0.5051 0,0.1473 0.0524,0.3049 0.1677,0.4207 0.1267,0.137 0.3155,0.2317 0.5051,0.2209 0.1685,0 0.3368,-0.0736 0.4629,-0.189l0 -0.0108 0.0526 -0.0526c0.4527,-0.4417 0.9368,-0.9155 1.3887,-1.3996l0.0531 -0.0314z"/>
   <path class="fil7" d="M101.9214 15.9927c-0.0846,0.0737 -0.1474,0.0212 -0.0949,-0.0319 0.0628,-0.0948 0.821,-0.9151 0.9892,-1.2941 0.6628,-1.3152 -0.1158,-1.9042 -0.6844,-1.9778 -0.4732,-0.0634 -0.6519,-0.3471 -0.6205,-0.6947 0.0839,-0.3259 0.4734,-0.6103 0.8734,-0.5258 -0.1793,-0.484 0.1262,-0.7471 0.1262,-0.7471 0.3579,-0.3259 0.8523,-0.1786 1.0205,0.0634 0.0316,-0.3055 0.326,-0.4738 0.4523,-0.5052 0.274,-0.0526 0.7158,-0.0212 0.9054,0.8209 0.1153,0.5366 0.0417,1.0309 -0.1159,1.431 -0.4104,1.0937 -1.7047,2.3352 -2.8512,3.4614z"/>
   <path class="fil7" d="M104.236 14.4145c0.2099,-0.137 0.4206,-0.2632 0.5993,-0.358 1.6418,-0.8835 2.3467,-0.3367 2.3467,-0.3367 0.5788,0.274 0.4629,0.8106 0.4629,0.8106 0.5051,0.0941 0.8625,-0.1793 0.9682,-0.4002 0.1362,-0.263 0.0628,-0.4943 0.0628,-0.4943 0.8098,0.0104 0.9366,-0.589 0.9366,-0.589 0.1261,-0.5897 -0.5051,-0.737 -0.5051,-0.737 0.7888,-0.431 0.4941,-0.9996 -0.0212,-1.02 -0.5052,0 -0.9574,0.2311 -1.3786,0.463 -0.6205,0.3362 -2.3461,1.5988 -3.5351,2.5881 -0.1363,0.1159 -0.1159,0.1683 0.0634,0.0626l0 0.011z"/>
   <path class="fil7" d="M108.5709 10.8371c0.1159,-0.0524 0.2419,-0.0839 0.2944,-0.1998 0.0736,-0.1581 -0.0633,-0.2946 -0.1785,-0.3579 0,0 -0.1895,-0.0948 -0.495,-0.0423 0,0 0.3792,-0.4733 -0.0628,-0.7785 0,0 -0.4314,-0.2312 -0.8733,0.1267 0,0 -0.1263,-0.4949 -0.726,-0.4315 0,0 -0.547,0.0422 -0.5682,0.5992 0,0 -0.5474,-0.3785 -0.9577,0.0423 -0.1153,0.1473 -0.084,0.2947 -0.0211,0.4315 0,0 1,1.2941 -0.1052,2.9564l-0.021 0.032c-0.1364,0.189 -0.1576,0.2735 0.1262,0.0627 0.2104,-0.1575 0.4,-0.3258 0.4,-0.3258 2.1674,-1.789 3.1983,-2.115 3.1983,-2.115l-0.0102 0z"/>
   <path class="fil2" d="M101.3634 58.4781c-0.1048,0 -0.263,0.0423 -0.3469,0.2106l-0.0424 0.0737c-1.515,2.6515 -2.9247,3.2085 -3.8295,3.2085 -2.2729,0 -3.2404,-4.1767 -3.3564,-5.2077l-0.0634 -0.5474 0.358 0.4104c0.484,0.5577 1.3574,0.8733 2.4092,0.8733 1.9256,0 4.598,-2.1148 4.598,-5.5552 0,-0.8101 -0.2005,-1.4837 -0.5896,-1.9575 -0.431,-0.5256 -1.0521,-0.7991 -1.8724,-0.7991 -2.1046,0 -4.3035,1.3779 -6.7338,4.208l-0.6418 0.7581 0.3683 -0.947c1.0309,-2.5676 2.1462,-5.5763 2.8826,-7.5651l0.242 -0.6525c0.2317,-0.5993 0.4207,-1.0942 0.5366,-1.4099 0.0212,-0.0526 0.0315,-0.0841 0.0423,-0.1051 0,-0.0103 0,-0.0315 0.0104,-0.0423l0 -0.0315c0.0319,-0.0736 0.053,-0.1261 0.0633,-0.1575 0.0838,-0.2215 0.0948,-0.3893 0.0314,-0.5159 -0.0628,-0.1365 -0.2209,-0.2312 -0.4522,-0.2838 -0.5788,-0.1473 -1.2626,-0.0321 -1.8728,0.2946 -0.8735,0.463 -1.5682,1.2831 -1.9576,2.3148 -0.7989,2.104 -2.6406,7.0598 -3.1874,8.5326 -0.3892,0.9573 -0.8106,2.0413 -1.2836,3.304 -1.5887,3.1457 -4.1142,5.0922 -6.5972,5.0922 -0.3471,0 -0.6947,-0.0422 -1.0309,-0.1159 -0.6633,-0.1683 -1.1998,-0.5992 -1.536,-1.2415 -0.5788,-1.0835 -0.5475,-2.6194 0.0736,-4.3241 1.0521,-2.9356 3.3456,-5.3137 5.1135,-5.3137 0.3682,0 0.6838,0.137 0.8836,0.4 0.2838,0.3581 0.3683,0.9471 0.2209,1.5676l-0.0524 0.2317 -0.1999 -0.1261c-0.2004,-0.1269 -0.4314,-0.1896 -0.6947,-0.1896 -0.9157,0 -2.0623,0.8414 -2.3358,2.1989 -0.1159,0.5998 0,1.1364 0.3157,1.5258 0.3155,0.3785 0.8101,0.5994 1.3676,0.5994 1.294,0 2.7462,-1.1681 3.0832,-3.7664 0.1784,-1.294 -0.1057,-2.4414 -0.7896,-3.2194 -0.6416,-0.737 -1.5989,-1.1154 -2.8511,-1.1154 -3.388,0 -7.1338,3.4506 -8.3542,7.7015 -0.1575,0.5264 -0.2625,1.0733 -0.3155,1.6308l0 0.0423 -0.0315 0.0315c-1.052,1.5886 -2.5672,3.4825 -3.8611,3.4825 -0.2318,0 -0.4212,-0.0947 -0.5371,-0.2734 -0.5682,-0.8418 0.3687,-3.2616 0.4103,-3.3673 0.1896,-0.4732 1.0206,-2.4408 1.8414,-4.3348 0.6942,-1.6308 1.3575,-3.1772 1.4523,-3.4296 0.094,-0.2106 0.1152,-0.3893 0.0525,-0.516 -0.0633,-0.1362 -0.2107,-0.2414 -0.4419,-0.3048l-0.0212 0c0,0 -0.1896,-0.0947 -0.5474,-0.0947 -0.568,0 -1.515,0.2106 -2.7776,1.1992l-0.1684 0.1262 -0.0948 -0.189c-0.5679,-1.1467 -1.5572,-1.7045 -3.0402,-1.7045 -3.7041,0 -7.2706,3.8086 -8.5755,7.4909 -0.2626,0.7471 -0.4417,1.4625 -0.5365,2.1995l0 0.0524 -0.0417 0.0417c-1.168,1.4311 -3.0197,3.1463 -5.2082,3.1463 -0.7683,0 -1.3465,-0.2317 -1.7046,-0.6735 -0.4629,-0.5576 -0.5787,-1.4413 -0.3366,-2.6201l0.021 -0.0839 0.084 -0.0314c3.7145,-1.6731 8.0915,-8.9539 8.8381,-14.6987 0.1471,-1.1782 -0.0417,-2.1148 -0.5578,-2.693 -0.484,-0.5578 -1.1468,-0.6736 -1.6198,-0.6736 -1.526,0 -3.0832,0.8734 -4.6193,2.588 -3.9346,4.3983 -6.4177,12.9309 -5.9234,17.3291 0.3893,3.4615 3.1883,3.8611 3.7458,3.9032 2.5356,0.2209 4.913,-0.9681 7.0702,-3.514l0.2318 -0.274 0.0626 0.3477c0.4104,2.1041 1.9779,3.4717 3.9981,3.4717 1.4413,0 2.8832,-0.6941 4.2822,-2.0727l0.1999 -0.1998 0.0845 0.2632c0.3893,1.2416 1.41,1.9569 2.7987,1.9569 2.1886,0 4.0928,-2.0413 5.3024,-3.767l0.2108 -0.3049 0.0946 0.358c0.5367,2.1674 2.1886,3.5453 4.3983,3.7035 0.2414,0.0212 0.4733,0.0314 0.7043,0.0314 2.2731,0 4.4507,-0.9572 6.3026,-2.7672l0.9894 -0.8729 -0.1371 0.5367c-0.242,0.9783 -0.4208,1.9254 -0.4208,2.3563 0.0103,0.3477 0.1263,0.5475 0.6627,0.5475l2.0937 0c0.4842,0 0.7262,-0.0423 0.9369,-1.0521 0.0736,-0.2739 0.1576,-0.5686 0.242,-0.8842 0.4309,-1.5784 1.0097,-3.756 1.7358,-5.2499l0.358 -0.737 -0.0423 0.8209c-0.032,0.6839 -0.032,1.4945 0,1.7992 0.4102,3.6196 1.9464,5.4503 4.5769,5.4503 2.4934,0 4.692,-1.8203 6.1864,-5.1243 0.0314,-0.0627 0.0417,-0.105 0.0628,-0.1363 0.0525,-0.137 0.0423,-0.2632 -0.0315,-0.3791 -0.0839,-0.1262 -0.2523,-0.2209 -0.4206,-0.2209l0.0523 0.0212zm-52.3334 -1.6937l0 0c1.0307,-4.6927 4.4192,-12.5211 6.2076,-13.6153 0.2734,-0.1677 0.4942,-0.1677 0.6204,-0.0314 0.0948,0.1056 0.1371,0.2631 0.116,0.5051 -0.1365,2.8199 -2.546,9.8799 -6.6811,13.2991l-0.3789 0.3156 0.116 -0.4732zm17.2022 -0.3055l0 0c-1.3568,3.5775 -2.9038,5.3868 -4.6185,5.3868 -0.4629,0 -0.8209,-0.1785 -1.0629,-0.5256 -0.5679,-0.8208 -0.3895,-2.6412 0.4943,-4.9873 1.1576,-3.167 3.0831,-5.3868 4.6926,-5.3868 0.474,0 0.8312,0.1683 1.063,0.4942 0.5468,0.7786 0.3574,2.4197 -0.5787,5.0085l0.0102 0.0102zm27.0618 -2.4516l0 0 0.0736 -0.0839c1.3254,-1.5151 2.914,-2.6093 3.777,-2.6093 0.1999,0 0.6626,0.0839 0.6626,0.9152 0,1.189 -1.0627,3.4825 -2.5252,3.4825 -0.7049,0 -1.3573,-0.5366 -1.9356,-1.599l-0.0524 -0.1055z"/>
   <path class="fil2" d="M148.3419 49.1034c-1.3574,0 -2.736,0.7363 -3.8829,2.0624l-0.5993 0.6941 0.3049 -0.8626c0.2105,-0.589 0.7262,-1.9989 1.2627,-3.4613 0.7156,-1.9678 1.4622,-3.9878 1.5572,-4.2824 0.0833,-0.2209 0.0949,-0.3894 0.0321,-0.5154 -0.0628,-0.137 -0.2219,-0.2317 -0.453,-0.2843 -0.5786,-0.1472 -1.2626,-0.0314 -1.8727,0.2945 -0.8734,0.463 -1.5681,1.2837 -1.9568,2.3148 -0.7998,2.1046 -2.6835,7.1233 -3.5357,9.4272 -0.5048,1.3573 -0.8312,2.6412 -0.947,3.8302l0 0.0417 -0.0315 0.032c-1.0732,1.641 -2.6194,3.5979 -3.9347,3.5979 -0.2316,0 -0.4212,-0.0948 -0.5366,-0.2734 -0.5685,-0.8312 0.3683,-3.2618 0.4099,-3.3669 0.1894,-0.4738 1.0205,-2.4304 1.8312,-4.3137 0.7049,-1.652 1.3676,-3.2091 1.4624,-3.4512 0.0948,-0.2108 0.1153,-0.3893 0.0525,-0.5155 -0.0634,-0.1369 -0.2109,-0.242 -0.442,-0.3053l-0.0209 0c0,0 -0.1896,-0.0949 -0.5476,-0.0949 -0.5578,0 -1.4836,0.2004 -2.7251,1.1577l-0.2312 0.1787 -0.0946 -0.1998c0,0 -0.0214,-0.0314 -0.0214,-0.0526 -0.5677,-1.1044 -1.557,-1.641 -3.0087,-1.641 -3.7035,0 -7.2705,3.8084 -8.575,7.4908 -0.8841,2.4832 -0.7996,4.6717 0.2414,6.1656 0.737,1.0526 1.926,1.6519 3.2618,1.6519 1.4421,0 2.8833,-0.6941 4.2824,-2.0726l0.1997 -0.1998 0.0844 0.2631c0.3895,1.2416 1.4102,1.9568 2.799,1.9568 2.1883,0 4.0928,-2.0515 5.313,-3.7772l0.2313 -0.3264 0.0742 0.3893c0.4731,2.357 2.2513,3.7144 4.8605,3.7144 2.841,0 5.8075,-2.0515 7.5756,-5.2292 0.8521,-1.5361 1.1984,-3.0197 1.21,-3.0299 0.1257,-0.5155 0.2106,-1.0417 0.2308,-1.5784 0.0951,-1.7679 -0.3989,-3.3565 -1.356,-4.3559 -0.6635,-0.705 -1.5373,-1.0732 -2.5048,-1.0732zm-16.9291 7.3859l0 0c-1.3574,3.5774 -2.9044,5.3875 -4.619,5.3875 -0.4631,0 -0.8209,-0.1793 -1.063,-0.5264 -0.5679,-0.8208 -0.3893,-2.6406 0.4949,-4.9873 1.1571,-3.1669 3.0824,-5.3868 4.6922,-5.3868 0.4738,0 0.8317,0.1684 1.0628,0.4944 0.547,0.7786 0.358,2.4202 -0.5788,5.0083l0.0109 0.0103zm16.5083 0l0 0c-1.3475,3.5774 -2.9044,5.3875 -4.6191,5.3875 -0.4629,0 -0.821,-0.1793 -1.063,-0.5264 -0.568,-0.8208 -0.3893,-2.6406 0.495,-4.9873 1.157,-3.1669 3.0825,-5.3868 4.6917,-5.3868 0.4749,0 0.8315,0.1684 1.0638,0.4944 0.5465,0.7786 0.3579,2.4202 -0.5685,5.0186z"/>
   <path class="fil2" d="M169.3951 59.078l0.0526 -0.0423c0,0 1.1471,-0.9892 1.6937,-1.4311 3.3888,-2.7355 6.5336,-8.6907 7.1648,-13.5513 0.1475,-1.1789 -0.0423,-2.1149 -0.5568,-2.6937 -0.4836,-0.5576 -1.1472,-0.6729 -1.6206,-0.6729 -5.1131,0 -9.8579,10.4055 -10.4469,17.16 -0.0219,0.2317 -0.0425,0.4104 -0.0526,0.5475 -0.0424,0.463 -0.0539,0.5365 0,1.2306l0 0.0948 -0.0744 0.0525c-1.967,1.4208 -4.0509,2.241 -5.7139,2.241 -0.7876,0 -1.451,-0.1786 -1.9771,-0.5256 -0.7787,-0.6103 -1.0741,-1.7782 -0.8737,-3.2828l0.0219 -0.137 0.1359 0c0.3053,-0.0423 3.0833,-0.3156 5.6507,-2.2411 1.777,-1.3254 2.0518,-2.8723 2.0518,-3.6721 0,-0.8311 -0.3055,-1.5988 -0.852,-2.1462 -0.6006,-0.5994 -1.4524,-0.9151 -2.4842,-0.9151 -2.9781,0 -6.2704,2.6093 -7.8166,6.2078 -0.7481,1.7357 -1.0317,3.2823 -0.8738,4.7241 0.2732,2.4831 1.9143,4.1454 4.2714,4.3348l0.0628 0c3.5568,0 5.4404,-1.1577 8.4595,-3.1882l0.2001 -0.1369 0.0628 0.2318c0.6416,2.4933 2.4829,3.0088 3.5145,3.0933 0.2631,0.0205 0.5261,0.0315 0.779,0.0315 5.3965,0 6.9645,-5.2397 6.9761,-5.2922 0.0614,-0.1479 0.0614,-0.274 0,-0.3689 -0.0745,-0.1153 -0.2219,-0.1889 -0.3697,-0.1889 -0.0934,0 -0.2835,0.0314 -0.4091,0.2523 -1.1047,2.0835 -2.6946,3.1355 -4.8821,3.2194 -0.706,0.0212 -1.2422,-0.1473 -1.6105,-0.5256 -0.3786,-0.3791 -0.5671,-0.9579 -0.5582,-1.7154 0,-0.2208 0.0423,-0.6205 0.0423,-0.6416l0 -0.0634 0.0322 0.0109zm0.2106 -2.22l0 0c1.0301,-4.6717 4.3869,-12.4679 6.1653,-13.541 0.2732,-0.1685 0.4837,-0.1685 0.6211,-0.0321 0.0949,0.1057 0.1372,0.2632 0.1154,0.5052 -0.1257,2.7674 -2.2096,9.4905 -6.6285,13.2254l-0.3786 0.3259 0.1054 -0.4834zm-12.3204 -0.3156l0 0c0,0 0.0205,-0.0422 0.0205,-0.0736 0.0219,-0.0634 0.0525,-0.137 0.095,-0.2215 0.8097,-2.2513 2.357,-3.9032 3.5451,-4.7029 0.3683,-0.2421 0.7263,-0.3683 1.0214,-0.3683 0.4736,0 0.7891,0.3055 0.8519,0.8106 0.0526,0.4834 -0.168,1.1149 -0.6313,1.7674 -1.4203,2.0834 -3.8081,2.7565 -4.7039,3.0093l-0.3463 0.0948 0.1372 -0.3265 0.0103 0.0109z"/>
   <path class="fil2" d="M129.298 64.9169c0,0 -0.1263,0.0108 -0.2631,0.0844 -0.1895,0.0949 -0.358,0.1896 -0.5469,0.2947 -0.8317,0.4841 -1.7781,1.0309 -4.2721,1.0418l-0.0524 0c-3.2616,0 -5.3867,-1.168 -7.6278,-2.4094 -1.0734,-0.5892 -2.1784,-1.2102 -3.4724,-1.7257l-0.1787 -0.0736 0.1471 -0.1261c1.8416,-1.5469 4.2927,-4.4405 5.5451,-9.4906 0.0737,-0.2844 0.1364,-0.5578 0.2102,-0.821l0 -0.0313 0.0946 -0.1263 0.0316 0c0.516,-0.2106 1.0205,-0.4417 1.557,-0.7049 0.0532,-0.0211 0.0948,-0.0423 0.1473,-0.0634 0.0531,-0.0205 0.1057,-0.0417 0.1582,-0.0735 0.3469,-0.1787 0.7049,-0.3683 1.0833,-0.5892l0.0212 0c4.7877,-2.7667 7.7651,-6.8493 6.7865,-9.3008l0 -0.0213c-0.1581,-0.9463 -1.5469,-1.7146 -3.0197,-1.6308l-0.0211 0c-0.137,-0.0205 -0.2522,-0.0314 -0.3682,-0.0205 -3.8194,0 -8.4174,3.3877 -9.8274,9.8579 -0.1051,0.5053 -0.2209,0.9894 -0.3258,1.4522l-0.0212 0.116 -0.0628 0 -0.1056 -0.0213c-1.999,-0.347 -3.6087,-1.2203 -4.2081,-2.2833 -0.5052,-0.9047 -0.1895,-1.5782 0.1154,-2.2301 0.3155,-0.6845 0.6211,-1.3262 0.0946,-2.2623 -0.4629,-0.8208 -1.1992,-1.2939 -2.0202,-1.2939 -0.3469,0 -0.7049,0.0941 -1.0204,0.2626 -0.589,0.3264 -1.031,0.8841 -1.2308,1.5891 -0.1895,0.6627 -0.2529,1.7359 0.5258,3.1246 1.3049,2.3251 4.0722,3.9142 7.4069,4.2716l0.032 0 0.1473 0.1368 -0.0212 0.0628c-0.9468,3.8932 -1.9464,6.734 -4.0614,8.8701l-0.0423 0.0417 -0.0628 0c0,0 -0.0633,-0.0205 -0.0948,-0.0417 -0.5365,-0.263 -1.8095,-0.516 -2.4306,-0.516 -1.1467,0 -2.2302,0.9579 -2.4407,2.1258 -0.0839,0.4943 0.0839,1.052 0.4732,1.515 0.4629,0.5578 1.1263,0.8734 1.8313,0.8836l0.0525 0c0.915,0 1.9356,-0.2946 2.6618,-0.7677 0.1683,-0.1159 0.3366,-0.2317 0.4838,-0.3477 0.084,-0.0628 0.4106,-0.2944 0.6526,-0.4732l0.105 -0.0736 0.0634 0.0212c3.0088,1.3254 4.7868,2.5253 6.2072,3.4826 2.0201,1.3676 3.3461,2.2621 6.5971,2.3357 2.294,0.0524 3.4089,-1.4624 4.4402,-3.1567 0.1473,-0.2312 0.2839,-0.726 0.1999,-0.8837 -0.0109,-0.0211 -0.0314,-0.0423 -0.0845,-0.0423l0.0109 0.0315zm-9.9534 -15.2872l0 0c0.0948,-0.4105 0.1998,-0.8311 0.3155,-1.2415 1.5151,-5.2716 2.9569,-7.4914 5.524,-8.491l0.0212 0c0.5576,-0.0839 1.0307,0.0846 1.3254,0.484l0 0.0211c1.063,2.567 -2.1565,6.8602 -7.028,9.3639l-0.2208 0.1159 0.0627 -0.2421 0 -0.0103z"/>
   <path class="fil2" d="M35.5412 38.3926c-0.1787,0 -0.3683,0 -0.5467,0 -2.0727,0.053 -4.5347,0.7158 -6.4395,1.7045 -1.8935,0.9892 -3.3034,2.2306 -4.0929,3.5669 -0.5045,0.8523 -0.8726,1.9145 -1.0307,2.8936 -0.3786,2.4511 0.7573,4.0716 2.0623,4.4085 0.1575,0.0417 0.3047,0.0627 0.4629,0.0627 0.9784,0 1.7257,-0.7786 1.894,-1.9881 0.1574,-1.1262 -0.3369,-1.6628 -0.863,-2.2309 -0.4842,-0.5366 -0.9786,-1.0841 -0.8414,-2.0938 0.3362,-2.3045 3.6824,-4.5557 7.4698,-5.0082 0.484,-0.0526 0.9783,-0.0841 1.5257,-0.0949l0.0628 0c0.1793,0 0.358,0 0.5265,0 1.2202,0 2.1776,0.0634 3.4403,0.8843 0.3366,0.2209 0.5998,0.4417 0.7895,0.6729 0.5993,0.7472 0.7677,1.8729 0.5679,3.6618 -0.2107,1.8939 -1.3048,5.0609 -6.2287,5.0609l-1.2417 0.0205 0.0423 -0.1471c0.8419,-3.2932 1.4413,-5.1975 2.3992,-6.5025 0.305,-0.3893 0.6308,-0.7254 0.9573,-0.9993 0.0628,-0.0526 0.1263,-0.0949 0.1896,-0.1364 0.1471,-0.116 0.2733,-0.1999 0.3893,-0.2632 0.1999,-0.1159 0.2946,-0.2734 0.2838,-0.4526 -0.0212,-0.2524 -0.2524,-0.5155 -0.5783,-0.6417 -0.2739,-0.1051 -0.6314,-0.0737 -1.1262,0.1262 -3.2298,0.9785 -5.4183,3.7771 -6.3652,8.1016 -1.1994,5.5027 -2.1885,9.3112 -4.8402,11.9205l-0.0524 0.0524 -0.0735 -0.0314c-1.1892,-0.5679 -2.1888,-0.7888 -2.946,-0.6524 -1.0733,0.1894 -2.2514,0.9259 -2.462,2.1257 -0.084,0.5047 0.0947,1.0836 0.4942,1.5573 0.4631,0.557 1.1155,0.8727 1.7992,0.8836l0.0423 0c1.4522,0 2.8615,-0.8836 3.3667,-1.4732l0.0737 -0.0841 0.1051 0.0949c0.0634,0.0626 0.0947,0.0947 0.1159,0.1159 0.0423,0.0417 0.0634,0.0736 0.1896,0.1575 1.4097,1.0732 3.4191,1.5994 6.1443,1.5994 5.1659,0 11.4472,-2.2096 12.142,-8.4173 0.1895,-1.6622 -0.1263,-3.03 -0.9158,-4.0826 -0.7784,-1.0309 -1.536,-1.6937 -3.0297,-2.0195l-0.5051 -0.1057 0.5051 -0.1159c3.1981,-0.7152 4.9136,-2.5036 5.2394,-5.4706 0.1575,-1.4312 -0.4103,-2.9986 -1.5046,-4.0928 -1.6834,-1.6942 -4.24,-2.5464 -7.6068,-2.5464l0.0102 -0.0211zm2.9672 18.2023l0 0c-0.4942,4.3873 -3.4512,7.1227 -7.7226,7.1227 -2.5466,0 -3.651,-0.5154 -4.461,-1.0731l-0.137 -0.0948 0.1261 -0.0947c1.6733,-1.2519 4.6928,-4.1979 6.1129,-9.9319l0.3267 -1.3049 1.3253 0c1.6099,-0.0102 3.0409,0.5154 3.7145,1.3574 0.6838,0.8626 0.9259,2.1777 0.7152,4.0192z"/>
   <path class="fil1" d="M75.6601 79.763c-0.6947,0 -1.3997,0.0423 -2.0938,0.0423 -0.3369,0 -0.6736,-0.0321 -1.0104,-0.0211 -0.3579,0 -0.7153,0.0313 -1.0731,0.0313 -0.1684,0 -0.326,-0.0423 -0.4944,-0.0313 -0.1682,0 -0.3367,0.0313 -0.5051,-0.0212 -0.3258,-0.1051 -0.2947,-0.6735 -0.2735,-0.9361 0.0417,-0.6525 -0.0109,-1.3049 0.0314,-1.9575 0.0211,-0.347 -0.0525,-0.7049 -0.0314,-1.0622 0.0212,-0.358 0.0212,-0.7159 0.0212,-1.084 0.0102,-0.7154 -0.0212,-1.4415 -0.0212,-2.1566 0,-0.3893 0.1364,-0.5577 0.5259,-0.5687 0.3475,0 0.6837,0 1.0204,0.0315 0.3472,0.0212 0.6839,-0.0524 1.0316,-0.0315 0.347,0.0213 0.6838,0.0423 1.0307,0.0315 0.305,0 0.6205,0 0.9259,0 0.137,0 0.2735,-0.0205 0.4105,-0.0205 0.1786,0 0.3367,0.0627 0.5154,0.0417 0.7678,-0.0948 1.5572,0.1792 2.2097,0.5577 0.2733,0.1683 0.6626,0.5474 0.7256,0.8734 0.053,0.2843 0.0634,0.5475 0.0736,0.8311 0.0321,0.8843 -0.9464,1.4625 -1.7148,1.6206 0.589,0.0947 1.3048,0.3893 1.6206,0.9258 0.2735,0.4522 0.2624,0.9681 0.1154,1.4625 -0.3786,1.2307 -1.9467,1.4624 -3.0511,1.4624l0.0109 -0.0212zm0.6626 -5.2082l0 0c0,-0.5256 -0.5051,-0.7152 -0.9368,-0.7888 -0.2101,-0.0321 -0.4103,-0.0321 -0.6204,-0.0212 -0.1998,0 -0.3892,-0.0423 -0.589,-0.0314 -0.3581,0 -0.7261,-0.0109 -1.084,0 -0.5367,0.0314 -0.4105,0.4418 -0.4105,0.8413 0,0.3266 -0.1051,0.7998 0.3578,0.8522 0.3895,0.0525 0.8209,0 1.2103,0 0.3893,0 0.81,0 1.1991,-0.0626 0.442,-0.0737 0.8626,-0.3157 0.8626,-0.8107l0.0109 0.0211zm0 2.6829l0 0c0,-0.5366 -0.5366,-0.7153 -0.9579,-0.7889 -0.21,-0.0314 -0.4097,-0.0314 -0.6205,-0.0211 -0.2207,0 -0.4315,-0.0423 -0.6525,-0.0315 -0.3578,0.0212 -0.7574,-0.0422 -1.1044,0.0212 -0.4316,0.084 -0.2734,0.6942 -0.3055,1.0098 -0.0314,0.3893 0.0109,0.6947 0.484,0.6947 0.4002,0 0.8209,0.0102 1.2103,-0.0212 0.6626,-0.0525 1.9464,0.1261 1.9464,-0.8631 0,-0.1575 0,0.0109 0,0z"/>
   <path class="fil1" d="M89.0744 79.7207c-0.2209,-0.1364 -0.3049,-0.5154 -0.4105,-0.7364 -0.1154,-0.2523 -0.1363,-0.6417 -0.3786,-0.81 -0.2206,-0.1473 -0.589,0 -0.8417,0 -0.3684,0 -0.7364,-0.0108 -1.1149,0 -0.3476,0 -0.6947,-0.0212 -1.0416,-0.0212 -0.1685,0 -0.358,0.0526 -0.5265,0.0104 -0.1683,-0.0315 -0.3257,-0.1051 -0.452,0.0844 -0.0634,0.1159 -0.0846,0.2734 -0.137,0.3995 -0.0634,0.137 -0.116,0.2844 -0.1787,0.4207 -0.1369,0.2952 -0.2207,0.6736 -0.5999,0.7049 -0.2946,0.0212 -0.6103,0.0212 -0.9049,0 -0.2521,-0.0204 -0.7681,0.1685 -0.9366,-0.0838 -0.1472,-0.2209 0.158,-0.6627 0.2951,-0.842 0.2101,-0.2945 0.2947,-0.6837 0.4631,-1.0097 0.1473,-0.2843 0.347,-0.5475 0.4731,-0.8419 0.1474,-0.347 0.3157,-0.6627 0.4841,-0.9995 0.3156,-0.6103 0.5366,-1.2833 0.9048,-1.8622 0.1684,-0.263 0.3791,-0.5365 0.4417,-0.8522 0.0634,-0.3264 0.3266,-0.5999 0.474,-0.8835 0.336,-0.6633 1.2939,-0.3477 1.862,-0.3477 0.3471,0 0.7573,-0.0417 1.0103,0.2631 0.221,0.2529 0.2523,0.6417 0.4207,0.9258 0.3368,0.5681 0.6103,1.1577 0.915,1.7468 0.1371,0.2735 0.2632,0.6627 0.4629,0.8945 0.1159,0.1262 0.1794,0.2625 0.2209,0.4207 0.0423,0.1683 0.1479,0.2843 0.2421,0.4206 0.0948,0.1472 0.1159,0.3265 0.2005,0.4841 0.0839,0.1575 0.2099,0.2734 0.2734,0.4417 0.1159,0.3158 0.2735,0.5681 0.4316,0.8632 0.1575,0.2945 0.2835,0.6101 0.4308,0.9048 0.1999,0.3893 -0.3683,0.3682 -0.5889,0.3682 -0.2948,0 -0.5892,0 -0.8838,0 -0.1472,0 -0.2946,-0.0314 -0.4418,-0.0212 -0.1895,0.0102 -0.3682,0.0634 -0.5366,-0.0423l-0.0319 0zm-2.6721 -5.429l0 0c-0.263,0 -0.3266,0.5159 -0.4526,0.6837 -0.1999,0.2632 -0.2844,0.6 -0.4528,0.8842 -0.1049,0.1788 -0.4732,0.7154 -0.1473,0.8523 0.137,0.0524 0.3157,0.0211 0.4528,0 0.1684,-0.0211 0.3155,0.0102 0.484,0.0211 0.326,0.0205 0.6941,0.0417 1.0098,0.0205 0.4839,-0.0416 0.1684,-0.4943 0.0321,-0.7364 -0.1686,-0.3049 -0.2633,-0.6313 -0.4104,-0.9469 -0.0947,-0.1998 -0.242,-0.7889 -0.5156,-0.7889 -0.2107,0 0.2102,0 0,0l0 0.0104z"/>
   <path class="fil1" d="M101.4474 74.3024c-0.7784,-0.5686 -1.6621,-0.7363 -2.5983,-0.7682 -0.2421,0 -0.4314,0.0211 -0.6524,0.0947 -0.2108,0.0736 -0.4419,0.0736 -0.6416,0.1787 -0.4316,0.2215 -0.7049,0.4948 -0.9682,0.8944 -0.4417,0.6839 -0.4314,1.7154 0,2.3993 0.4631,0.7467 1.294,1.0411 2.1251,1.1468 0.4528,0.0524 0.8312,-0.0525 1.273,-0.1159 0.4738,-0.0736 0.7785,-0.2946 1.189,-0.5052 0.3471,-0.1787 0.6101,-0.484 0.9367,-0.0948 0.1997,0.2529 0.3893,0.5161 0.5993,0.7683 0.3054,0.3684 -0.0423,0.5264 -0.3368,0.7262 -0.3893,0.2735 -0.7364,0.4418 -1.1782,0.6103 -0.1999,0.0736 -0.3682,0.1785 -0.5788,0.2207 -0.1998,0.0424 -0.4104,0.0526 -0.6103,0.084 -0.4206,0.0737 -0.9047,0.1472 -1.3254,0.1472 -1.5149,-0.0205 -3.209,-0.5891 -4.1663,-1.8094 -0.5262,-0.6737 -0.7895,-1.5886 -0.7895,-2.4408 0,-0.4317 0.0948,-0.8523 0.242,-1.2628 0.0737,-0.1998 0.1472,-0.3995 0.2845,-0.5788 0.147,-0.1998 0.2418,-0.4522 0.4205,-0.6205 0.1582,-0.1472 0.3265,-0.2842 0.484,-0.4212 0.1684,-0.1262 0.2947,-0.3259 0.4943,-0.4099 0.4214,-0.1894 0.8209,-0.4526 1.2627,-0.5896 0.5788,-0.1786 1.1788,-0.21 1.778,-0.2208 0.3158,0 0.6423,-0.0206 0.9471,0.0211 0.4527,0.0524 0.8625,0.2106 1.3151,0.2842 0.4208,0.0737 0.7684,0.2632 1.147,0.463 0.2315,0.1159 0.8522,0.3996 0.8417,0.7262 0,0.1472 -0.2207,0.2734 -0.3155,0.3682 -0.1262,0.1262 -0.2421,0.2522 -0.3682,0.3894 -0.1269,0.1261 -0.2208,0.3049 -0.358,0.4103 -0.1786,0.1364 -0.3055,-0.0108 -0.4527,-0.1159 -0.1152,-0.0845 0.0633,0.0423 0,0l0 0.0211z"/>
   <path class="fil1" d="M110.591 80.0998c-0.4315,0 -0.8209,-0.0736 -1.2415,-0.1581 -0.2108,-0.0417 -0.4106,-0.0526 -0.6102,-0.1364 -0.2209,-0.0947 -0.4419,-0.2318 -0.6628,-0.2946 -0.8209,-0.2528 -1.4631,-1.0103 -1.8939,-1.7153 -0.2107,-0.3471 -0.3056,-0.7888 -0.4105,-1.1781 -0.1049,-0.3894 -0.0844,-0.8209 -0.0313,-1.2205 0.0941,-0.842 0.5257,-1.7046 1.1468,-2.2833 0.2734,-0.2523 0.6415,-0.6103 0.9887,-0.7574 0.4103,-0.1787 0.842,-0.3471 1.2626,-0.4841 0.379,-0.1159 0.8524,-0.1159 1.2416,-0.1261 0.4419,-0.0109 0.9259,-0.0423 1.3465,0.0838 0.4003,0.1262 0.8106,0.1683 1.1891,0.3682 0.4104,0.2107 0.7998,0.4001 1.1576,0.6946 0.1474,0.1264 0.2421,0.3049 0.4106,0.4207 0.1682,0.1159 0.2521,0.253 0.3572,0.4316 0.1057,0.1787 0.2107,0.358 0.3055,0.547 0.1261,0.2419 0.1362,0.4417 0.1997,0.7049 0.0314,0.1369 0.1051,0.2632 0.1159,0.4001 0.0211,0.1683 -0.0423,0.3259 -0.032,0.484 0.0212,0.3259 0,0.6206 -0.0839,0.9361 -0.1682,0.7262 -0.4629,1.2627 -0.9782,1.7991 -0.4741,0.4841 -1.0842,0.8946 -1.7258,1.1367 -0.3257,0.1153 -0.6838,0.1153 -1.0097,0.2414 -0.1792,0.0633 -0.3264,0.0633 -0.516,0.053 -0.1787,0 -0.3469,0.0628 -0.5155,0.0628l-0.0102 -0.0103zm2.3358 -4.3034l0 0c0,-0.2947 -0.032,-0.6417 -0.1369,-0.9151 -0.116,-0.3055 -0.305,-0.516 -0.5157,-0.7581 -0.4315,-0.5046 -1.1466,-0.6416 -1.7889,-0.6308 -0.6307,0.0206 -1.3254,0.2414 -1.746,0.7466 -0.3894,0.4738 -0.4951,1.1577 -0.4951,1.7467 0,0.137 -0.0205,0.2734 0,0.4207 0.0321,0.1793 0.1474,0.3156 0.1795,0.4943 0.0627,0.3055 0.21,0.6 0.4838,0.7785 0.2736,0.1794 0.4734,0.3894 0.7787,0.5161 0.3574,0.1364 0.6627,0.105 1.0309,0.1154 0.3048,0.0211 0.6314,-0.0206 0.9049,-0.1787 0.2733,-0.1472 0.6415,-0.3579 0.8309,-0.6 0.1999,-0.242 0.337,-0.5256 0.4317,-0.8311 0.0948,-0.3049 0.0634,-0.5994 0.0634,-0.9151 0,-0.1369 0,0.0948 0,0l-0.0212 0.0104z"/>
   <path class="fil1" d="M125.4685 79.4895c-0.9893,-0.9995 -1.9467,-2.031 -2.9251,-3.0303 -0.1267,-0.1263 -0.2951,-0.189 -0.4104,-0.3363 -0.1056,-0.1267 -0.2004,-0.2529 -0.3265,-0.3688 -0.1152,-0.105 -0.4943,-0.7255 -0.6627,-0.431 -0.137,0.242 -0.0212,0.6627 0,0.9258 0.0315,0.3574 -0.0525,0.705 -0.0314,1.0625 0.0314,0.7049 -0.0212,1.4099 0,2.1148 0,0.4315 -0.3264,0.358 -0.6627,0.347 -0.3475,0 -0.6947,0.0532 -1.0416,0 -0.3266,-0.0417 -0.6313,0.0845 -0.6211,-0.3572 0.0108,-0.3682 0.0423,-0.7576 0,-1.1155 -0.0315,-0.3366 0,-0.6735 0,-1.0103 0.0211,-0.3785 -0.0417,-0.778 0,-1.1571 0.032,-0.3054 -0.0628,-0.5998 0,-0.8944 0.0632,-0.3049 -0.0212,-0.6526 0,-0.9681 0.0108,-0.3574 0.0211,-0.7153 0.0211,-1.0733 0,-0.3156 -0.0313,-0.6837 0.0634,-0.9886 0.1051,-0.3368 0.5366,-0.1793 0.7887,-0.1793 0.3581,0 0.7474,0.0212 1.0944,-0.0524 0.3055,-0.0628 0.5051,0.3055 0.6837,0.4949 0.253,0.2734 0.5155,0.5365 0.7575,0.8099 0.2209,0.2421 0.4315,0.4943 0.6735,0.6941 0.2947,0.2317 0.484,0.5687 0.7575,0.821 0.242,0.2208 0.4315,0.4839 0.6838,0.6947 0.2735,0.242 0.5679,0.4833 0.7889,0.7676 0.0743,0.0949 0.1581,0.2947 0.2842,0.2947 0.1581,0 0.1263,-0.3157 0.1263,-0.4105 0.021,-0.3361 0.0524,-0.6627 0.0524,-0.9994 0,-0.3049 -0.0417,-0.5782 -0.0206,-0.8734 0,-0.1473 -0.0319,-0.2837 -0.0423,-0.431 -0.0211,-0.2107 0.0212,-0.4212 0.0212,-0.6313 0,-0.2736 0.0524,-0.5475 0.0315,-0.821 -0.0213,-0.3681 0.1683,-0.3259 0.463,-0.3471 0.2631,-0.021 0.5154,-0.0423 0.7786,-0.021 0.2733,0.021 0.5469,-0.0103 0.8209,0 0.3259,0.021 0.2733,0.3681 0.2522,0.621 -0.0314,0.3049 0,0.6205 0,0.9259 0.0109,0.2836 0.0314,0.5782 0.0211,0.8625 0,0.2946 -0.0524,0.568 -0.0314,0.8624 0.084,1.1999 0.0103,2.4305 0.0103,3.6408 0,0.2208 0.1051,0.6524 -0.084,0.81 -0.1792,0.1471 -0.6523,0.0735 -0.863,0.0633 -0.2631,-0.0109 -0.5052,0 -0.7678,0 -0.3578,0.0102 -0.4526,-0.0633 -0.6947,-0.3055l0.0111 -0.0103z"/>
  </g>
 </g>
</svg>
